<?xml version="1.0" encoding="UTF-8"?>
<svg version="1.1" xmlns="http://www.w3.org/2000/svg" width="436" height="292">
<path d="M0 0 C143.88 0 287.76 0 436 0 C436 96.36 436 192.72 436 292 C292.12 292 148.24 292 0 292 C0 195.64 0 99.28 0 0 Z " fill="#FCFCFC" transform="translate(0,0)"/>
<path d="M0 0 C3.23211264 1.76512154 6.11590319 3.7162662 9 6 C9.61101562 6.43828125 10.22203125 6.8765625 10.8515625 7.328125 C20.29965264 14.57027339 25.75908884 26.55116819 28 38 C28.28118709 40.73655879 28.33487304 43.437854 28.3125 46.1875 C28.30686035 46.92508545 28.3012207 47.6626709 28.29541016 48.42260742 C27.96521116 63.53493259 22.92666056 76.82854072 12.41796875 87.8125 C-0.82236176 99.79082809 -16.35718183 101.78430843 -33.44775391 101.17919922 C-46.21814905 100.28255965 -57.31502009 93.59930421 -65.96484375 84.4765625 C-69.39116703 80.30710192 -71.78391414 75.90367934 -74 71 C-74.41378906 70.1440625 -74.82757813 69.288125 -75.25390625 68.40625 C-80.334945 56.08428844 -79.94001105 39.22626655 -75.32421875 26.8203125 C-69.18697167 13.7492435 -60.1024682 3.38616028 -46.46875 -2 C-44.32406633 -2.7241789 -42.17694854 -3.38119459 -40 -4 C-27.53181589 -8.15606137 -11.62208838 -5.51434081 0 0 Z " fill="#242122" transform="translate(260,121)"/>
<path d="M0 0 C8.58 0 17.16 0 26 0 C26.495 26.235 26.495 26.235 27 53 C29.97 50.69 32.94 48.38 36 46 C48.75601483 39.62199259 62.5407884 37.56462732 76.3203125 41.94140625 C90.21525886 47.43051771 90.21525886 47.43051771 92 51 C91.24493164 51.13051758 90.48986328 51.26103516 89.71191406 51.39550781 C86.22288159 52.00419634 82.7365077 52.627019 79.25 53.25 C78.06277344 53.45496094 76.87554687 53.65992188 75.65234375 53.87109375 C65.67490948 55.67030321 55.57913306 57.72601149 47.0625 63.5 C45.78052734 64.35078125 45.78052734 64.35078125 44.47265625 65.21875 C35.56792179 71.63353502 28.60136044 80.10199295 26 91 C25.05483516 99.45776368 25.26997608 107.68996303 30 115 C34.51167949 120.17362475 39.04051448 124.08728059 46 125 C62.19253604 126.07275551 77.71594143 122.09604792 90.4375 111.6875 C97.73086813 104.69023015 102.15896253 96.22974571 106 87 C106.60352677 85.60388987 107.20759071 84.20801166 107.8125 82.8125 C108.204375 81.884375 108.59625 80.95625 109 80 C113.30827332 86.45375883 111.83204563 98.03092262 110.59716797 105.40576172 C108.6944769 114.06584456 105.86497476 122.21109086 100 129 C99.02933594 130.15048828 99.02933594 130.15048828 98.0390625 131.32421875 C92.50827769 137.36415523 86.48779398 140.81036709 79 144 C78.22140625 144.36222656 77.4428125 144.72445312 76.640625 145.09765625 C65.90176244 148.76729715 49.26049334 149.0179055 39 144 C34.07732249 140.96260324 29.95124927 137.19820235 26 133 C25.34 136.96 24.68 140.92 24 145 C16.08 145 8.16 145 0 145 C0 97.15 0 49.3 0 0 Z " fill="#252223" transform="translate(57,75)"/>
<path d="M0 0 C10.23 0 20.46 0 31 0 C33.3925 4.145625 35.785 8.29125 38.25 12.5625 C38.99668945 13.85615479 39.74337891 15.14980957 40.51269531 16.48266602 C43.6860503 21.98226603 46.85675892 27.48312583 50 33 C51.0850907 31.25108911 52.16787842 29.50074955 53.25 27.75 C53.61730225 27.19094971 53.98460449 26.63189941 54.36303711 26.0559082 C56.73533993 22.37007706 58.53397872 18.77751389 60.11328125 14.68359375 C64.81280676 3.61342598 64.81280676 3.61342598 70 0 C80.05674358 -2.50354275 90.82006666 -1.21679968 101 0 C91.74428154 14.60838333 82.05407983 28.90073997 72.26171875 43.15332031 C69.72242545 46.4316993 69.72242545 46.4316993 69.16796875 50.359375 C70.13623108 53.43235778 71.4815124 55.59639479 73.3125 58.25 C74.034375 59.301875 74.75625 60.35375 75.5 61.4375 C76.33175562 62.62610561 77.16518046 63.81354434 78 65 C78.45375 65.64582031 78.9075 66.29164063 79.375 66.95703125 C81.87011769 70.50308167 84.37368095 74.04311767 86.87890625 77.58203125 C90.01885693 82.02263509 93.14655008 86.47129933 96.25 90.9375 C96.96700073 91.9579541 96.96700073 91.9579541 97.69848633 92.99902344 C101 97.76984838 101 97.76984838 101 100 C101.66 100 102.32 100 103 100 C103 100.66 103 101.32 103 102 C92.827258 103.55715013 81.99394205 105.04253405 72 102 C64.89835165 96.38822444 61.2209813 88.06322891 57.49560547 80.00390625 C55.46988411 75.93526838 52.91516547 72.47015427 50 69 C47.81233863 72.41353593 45.62527157 75.82745184 43.4387207 79.24169922 C42.69701631 80.39967777 41.95515823 81.55755791 41.21313477 82.71533203 C40.13776475 84.39328633 39.0630198 86.07164117 37.98828125 87.75 C37.28292236 88.82185547 36.57756348 89.89371094 35.85083008 90.99804688 C33.98221219 93.8545337 33.98221219 93.8545337 32.9206543 96.58007812 C31.84771275 99.06113505 31.17190524 100.37041256 29 102 C23.69941101 102.98285938 18.53643707 102.75275263 13.1875 102.5 C11.71689311 102.45984691 10.24618157 102.42334924 8.77539062 102.390625 C5.18141146 102.3027065 1.59136828 102.16481436 -2 102 C-0.56631904 98.2604854 1.01416738 95.3867021 3.4375 92.1875 C7.29731044 86.99240378 10.98295431 81.70066968 14.62817383 76.35327148 C17.15829694 72.65155996 19.72001495 68.9776527 22.3359375 65.3359375 C22.88475586 64.56975098 23.43357422 63.80356445 23.99902344 63.01416016 C25.06227486 61.53359054 26.13044465 60.05653744 27.20410156 58.58349609 C27.68588867 57.91141113 28.16767578 57.23932617 28.6640625 56.546875 C29.09154785 55.95745117 29.5190332 55.36802734 29.95947266 54.76074219 C31.10713128 52.81871637 31.6646577 51.22880637 32 49 C30.96885915 46.64767335 30.96885915 46.64767335 29.25 44.25 C28.59644531 43.27289063 27.94289063 42.29578125 27.26953125 41.2890625 C26.52058594 40.20367187 25.77164062 39.11828125 25 38 C24.19118495 36.82046422 23.3825995 35.64077097 22.57421875 34.4609375 C21.24091164 32.51918173 19.90561574 30.57887937 18.56616211 28.64135742 C14.42798246 22.65082959 10.35958785 16.61488312 6.3125 10.5625 C5.68786865 9.63195801 5.0632373 8.70141602 4.41967773 7.74267578 C3.55644897 6.44885986 3.55644897 6.44885986 2.67578125 5.12890625 C2.15927002 4.35619385 1.64275879 3.58348145 1.1105957 2.78735352 C0 1 0 1 0 0 Z " fill="#242122" transform="translate(290,118)"/>
<path d="M0 0 C36.02522171 -0.02553659 72.04974234 0.07996088 108.0746069 0.23571491 C118.62191259 0.28100379 129.16918031 0.32043381 139.71655273 0.34643555 C149.01815744 0.36937453 158.3196556 0.40267533 167.62117583 0.44870156 C172.5179991 0.4725882 177.41471764 0.49134976 182.31159782 0.49761391 C186.88638292 0.5036374 191.46089399 0.5235366 196.03557777 0.55427551 C197.71258013 0.56308264 199.38961821 0.56677281 201.06664276 0.56500816 C203.35174943 0.563362 205.63601392 0.57999387 207.92100525 0.60127258 C209.83835936 0.60818603 209.83835936 0.60818603 211.7944479 0.61523914 C215.21571269 1.02589189 216.65140404 1.5080684 219 4 C219.5625 7.4375 219.5625 7.4375 219 11 C216.91666899 13.31344205 215.2215947 14.78049733 212.09404564 15.34247208 C209.75685611 15.46208094 207.4535877 15.44568999 205.11401367 15.38720703 C204.22880539 15.38148178 203.34359711 15.37575653 202.43156433 15.36985779 C200.51357867 15.35577327 198.59564149 15.3329808 196.67784691 15.30246353 C193.63789892 15.25736642 190.59917612 15.24223018 187.55891418 15.23605347 C178.91720603 15.21516233 170.27643887 15.15662732 161.63549805 15.03808594 C156.34495527 14.96762968 151.05604711 14.94600786 145.76506996 14.95479965 C143.75358065 14.94851108 141.74205805 14.9237123 139.73103905 14.87976456 C128.75335775 14.23542996 128.75335775 14.23542996 119.01187134 18.262146 C117.02590382 20.75653919 115.51266188 23.20463501 114 26 C101.11714943 32.44142528 75.20433737 26.69275859 61 25 C59.75814941 24.85522217 59.75814941 24.85522217 58.49121094 24.70751953 C38.66904223 22.28834103 15.73414022 17.45415656 1 3 C0.67 2.01 0.34 1.02 0 0 Z " fill="#7BBF4A" transform="translate(110,240)"/>
<path d="M0 0 C1.14088074 0.00007553 2.28176147 0.00015106 3.45721436 0.00022888 C4.68337463 0.00539017 5.90953491 0.01055145 7.17285156 0.01586914 C8.43236633 0.01728409 9.6918811 0.01869904 10.98956299 0.02015686 C14.33012775 0.02480466 17.67062378 0.03378258 21.01116943 0.04486084 C24.42313037 0.05510941 27.83509841 0.05966185 31.24707031 0.06469727 C37.93589136 0.07572576 44.62467999 0.0924635 51.31347656 0.11352539 C51.31347656 3.41352539 51.31347656 6.71352539 51.31347656 10.11352539 C49.71431396 10.12287109 48.11515137 10.1322168 46.4675293 10.1418457 C40.52030844 10.18179241 34.5736023 10.2475657 28.62670898 10.32104492 C26.05548731 10.34922713 23.48417944 10.37045526 20.9128418 10.38452148 C17.2113033 10.40598797 13.51079817 10.45266105 9.80957031 10.50415039 C8.09198769 10.50599335 8.09198769 10.50599335 6.33970642 10.50787354 C-0.21259867 10.62743992 -4.3736051 11.17441148 -9.68652344 15.11352539 C-14.03531806 19.92008786 -14.81197426 22.44613241 -14.83369446 28.87467957 C-14.83920949 29.92951624 -14.83920949 29.92951624 -14.84483594 31.00566274 C-14.85589305 33.37389964 -14.85972006 35.74209269 -14.86352539 38.11035156 C-14.86978859 39.80370219 -14.87643526 41.49705144 -14.88343811 43.19039917 C-14.90086295 47.80010308 -14.91140426 52.4097966 -14.91964364 57.01952529 C-14.92479144 59.8990845 -14.93086732 62.77864047 -14.93715477 65.6581974 C-14.95621237 74.66623615 -14.97044139 83.67426668 -14.97876674 92.68232173 C-14.98853741 103.08289099 -15.01485012 113.48324732 -15.05526763 123.88374156 C-15.08542747 131.92034467 -15.10023555 139.95688675 -15.10354775 147.99354535 C-15.1058987 152.79434319 -15.11486471 157.59491371 -15.14000893 162.39565086 C-15.16329187 166.91418096 -15.16752201 171.43233412 -15.15724754 175.95090866 C-15.1567521 177.60730429 -15.1630751 179.26371848 -15.17680359 180.9200573 C-15.19453262 183.18630568 -15.18741273 185.45120282 -15.17427063 187.717453 C-15.17665898 188.9841643 -15.17904734 190.25087561 -15.18150806 191.5559721 C-14.39839398 197.18436928 -12.19270407 200.87762085 -7.7409668 204.53051758 C-2.44856508 207.16264966 3.42189541 206.55766311 9.18457031 206.44165039 C11.72297984 206.43664638 14.26139182 206.43277489 16.79980469 206.42993164 C20.78079383 206.4029019 24.76083426 206.36337462 28.74145508 206.30249023 C32.59818319 206.25146459 36.4525621 206.24981793 40.30957031 206.25415039 C42.08490395 206.20620331 42.08490395 206.20620331 43.89610291 206.1572876 C49.98899468 206.19274314 53.51385062 206.58323604 57.9387207 210.97973633 C59.08556832 212.3394689 60.21262955 213.71628956 61.31347656 215.11352539 C62.29971019 216.1271048 63.29490999 217.13244326 64.31347656 218.11352539 C55.73322922 218.18328436 47.15310198 218.23646728 38.57264042 218.26896191 C34.58763109 218.28456407 30.60281695 218.30570155 26.61791992 218.33984375 C22.76644939 218.37263322 18.91516564 218.39041931 15.06356621 218.39815712 C13.60007223 218.40366572 12.13658754 218.41442201 10.6731739 218.43071556 C-0.7531897 218.55278296 -10.63661845 217.88696351 -19.28027344 209.58227539 C-27.58713961 200.6238903 -27.12520012 190.78311735 -27.09057617 179.28369141 C-27.09628415 177.57299352 -27.10325007 175.86229945 -27.1113739 174.15161133 C-27.12927284 169.52140793 -27.12814312 164.89139438 -27.12243152 160.26116681 C-27.11933503 156.38945851 -27.12543721 152.51778643 -27.13147026 148.6460833 C-27.14550307 139.50946742 -27.14396447 130.37294507 -27.13256836 121.23632812 C-27.12108731 111.82385585 -27.13516544 102.41166852 -27.16196483 92.99923378 C-27.18414531 84.90471094 -27.19075395 76.81027738 -27.18488842 68.71572632 C-27.18152339 63.88703487 -27.18390378 59.05852607 -27.20113945 54.22986031 C-27.21664404 49.68822773 -27.2126142 45.14701624 -27.1938343 40.60540009 C-27.19015818 38.94340277 -27.1932283 37.28137401 -27.20372009 35.61940575 C-27.27016061 24.22024144 -26.33212569 15.34771418 -18.33105469 6.61743164 C-12.88061983 1.63306722 -7.24076404 -0.01601939 0 0 Z " fill="#252324" transform="translate(48.6865234375,39.886474609375)"/>
<path d="M0 0 C7.82871233 -0.07626941 15.65732827 -0.12869218 23.48632812 -0.16479492 C26.14796423 -0.17815167 28.80911286 -0.20029814 31.47070312 -0.22631836 C35.30344752 -0.26284115 39.1358629 -0.27975892 42.96875 -0.29296875 C44.15239136 -0.30845261 45.33603271 -0.32393646 46.55554199 -0.33988953 C56.26810111 -0.34185355 62.927646 1.30039156 70.171875 8.03125 C76.22417383 14.54911028 78.11955273 20.15114656 78.14044189 28.95024109 C78.14341302 29.6496797 78.14638414 30.34911831 78.1494453 31.06975204 C78.15811626 33.4132941 78.15963919 35.75678497 78.16113281 38.1003418 C78.16576218 39.78088998 78.17078701 41.46143712 78.17617798 43.14198303 C78.18929399 47.70832014 78.19574558 52.27464255 78.20018864 56.84099555 C78.20312113 59.69545486 78.20722632 62.54991016 78.21169281 65.40436745 C78.2253667 74.33979069 78.23503344 83.27520477 78.2388947 92.21063775 C78.24337292 102.51660781 78.26091032 112.82244507 78.2898953 123.12837476 C78.31153385 131.09965812 78.32160017 139.07090419 78.32293582 147.0422166 C78.32398245 151.80052695 78.32985976 156.55871245 78.34775543 161.31699181 C78.36427333 165.79611275 78.36637361 170.2750155 78.35761642 174.75415611 C78.35684799 176.39358099 78.3611631 178.03301778 78.37107468 179.67241287 C78.43914637 191.63824428 77.77295672 201.92999057 69 211 C60.32887521 218.07333989 50.94239735 218.29087222 40.1875 218.1953125 C38.97803711 218.1924826 37.76857422 218.18965271 36.52246094 218.18673706 C32.68153752 218.17559396 28.84085225 218.15049983 25 218.125 C22.38672213 218.11496263 19.77344059 218.1058381 17.16015625 218.09765625 C10.77334655 218.07567379 4.38671358 218.04118416 -2 218 C-1.34 214.37 -0.68 210.74 0 207 C1.59392578 206.99589111 3.18785156 206.99178223 4.83007812 206.98754883 C10.76432281 206.96571759 16.69790825 206.91138466 22.63183594 206.84741211 C25.19622462 206.82426722 27.76070788 206.80984469 30.32519531 206.80444336 C34.01947741 206.79512884 37.7122789 206.75407853 41.40625 206.70703125 C42.5461438 206.7109639 43.6860376 206.71489655 44.86047363 206.71894836 C51.78091929 206.59313908 56.7149737 205.68033505 62 201 C65.57888982 196.15118153 66.12743808 192.12658303 66.15390015 186.19451904 C66.1582824 185.49860728 66.16266465 184.80269551 66.1671797 184.08569551 C66.1805598 181.74820832 66.18674477 179.41075884 66.19287109 177.07324219 C66.20077266 175.39944794 66.20904165 173.72565538 66.21765137 172.05186462 C66.24386433 166.55021795 66.2591779 161.04856369 66.2734375 155.546875 C66.27879741 153.65285487 66.28417492 151.75883479 66.28956985 149.86481476 C66.31119717 141.98634882 66.32993399 134.10788493 66.34119225 126.22939682 C66.35743258 114.93881224 66.39061409 103.64857173 66.44759309 92.35811687 C66.48629233 84.41915911 66.5058249 76.48029339 66.51111281 68.54124379 C66.51476618 63.79964528 66.52678594 59.05841382 66.55921555 54.31691742 C66.58929607 49.85494865 66.59560817 45.39356901 66.58383179 40.93152046 C66.58361105 39.29607764 66.59191614 37.66060748 66.60948563 36.02525902 C67.02924593 26.35505383 67.02924593 26.35505383 63.62368774 17.5894165 C58.39766156 12.43165393 53.97053479 10.91697511 46.77246094 10.79467773 C45.73168396 10.77473251 44.69090698 10.75478729 43.61859131 10.73423767 C42.50179993 10.71752518 41.38500854 10.70081268 40.234375 10.68359375 C39.08584045 10.66281265 37.93730591 10.64203156 36.75396729 10.62062073 C33.08603889 10.55525007 29.41803907 10.49629806 25.75 10.4375 C23.26301346 10.39430293 20.77603413 10.35068825 18.2890625 10.30664062 C12.19278148 10.19958138 6.09642864 10.09827853 0 10 C0 6.7 0 3.4 0 0 Z " fill="#272425" transform="translate(339,40)"/>
<path d="M0 0 C0.97629868 -0.00307663 1.95259735 -0.00615326 2.95848083 -0.00932312 C4.01769241 -0.0021376 5.07690399 0.00504791 6.16821289 0.01245117 C7.82198692 0.0131385 7.82198692 0.0131385 9.50917053 0.01383972 C11.85540841 0.01686643 14.2016442 0.02476513 16.54785156 0.03710938 C20.0678658 0.05504789 23.58761143 0.05762106 27.10766602 0.05737305 C40.50154544 0.07905232 53.83486617 0.41447886 67.20336914 1.24291992 C64.58159186 3.8646972 63.40123332 3.51343273 59.74389648 3.56176758 C58.60286469 3.58163727 57.46183289 3.60150696 56.28622437 3.62197876 C55.04974152 3.63352997 53.81325867 3.64508118 52.53930664 3.65698242 C50.64578964 3.68603165 50.64578964 3.68603165 48.71401978 3.71566772 C45.35702702 3.76541037 42.00014599 3.80664565 38.64300537 3.84381104 C35.2177125 3.88380839 31.79258768 3.93492011 28.36743164 3.98510742 C21.64618533 4.08132052 14.92486609 4.16632574 8.20336914 4.24291992 C8.20336914 5.23291992 8.20336914 6.22291992 8.20336914 7.24291992 C8.89827957 7.2384787 9.59319 7.23403748 10.30915833 7.22946167 C16.85688952 7.18939352 23.40458652 7.15893991 29.95241261 7.13929558 C33.31875143 7.12885672 36.68498899 7.11469583 40.05126953 7.09204102 C43.92100729 7.06784181 47.7906009 7.056448 51.66040039 7.04760742 C52.86984818 7.03728485 54.07929596 7.02696228 55.32539368 7.0163269 C57.00679695 7.01610031 57.00679695 7.01610031 58.72216797 7.01586914 C59.71034012 7.01142792 60.69851227 7.00698669 61.71662903 7.00241089 C64.20336914 7.24291992 64.20336914 7.24291992 67.20336914 9.24291992 C63.69386539 10.02497161 60.36177754 10.41147332 56.77050781 10.54003906 C55.70978561 10.58000504 54.64906342 10.61997101 53.55619812 10.66114807 C52.42269424 10.69973434 51.28919037 10.73832062 50.12133789 10.77807617 C48.95202225 10.82105331 47.7827066 10.86403046 46.57795715 10.90830994 C42.84905429 11.04448767 39.11997826 11.17502477 35.39086914 11.30541992 C32.86025672 11.39684495 30.32965755 11.48863745 27.79907227 11.58081055 C21.60065187 11.80577548 15.4020799 12.02611158 9.20336914 12.24291992 C8.87336914 13.23291992 8.54336914 14.22291992 8.20336914 15.24291992 C27.67336914 15.24291992 47.14336914 15.24291992 67.20336914 15.24291992 C67.20336914 15.90291992 67.20336914 16.56291992 67.20336914 17.24291992 C63.66139791 18.423577 60.39346021 18.45397372 56.70336914 18.52416992 C55.95887512 18.54226212 55.2143811 18.56035431 54.44732666 18.57899475 C52.85551304 18.61745899 51.26365158 18.65398373 49.67175293 18.68875122 C45.57266044 18.77870584 41.47395724 18.88333098 37.37524414 18.98901367 C36.17469391 19.01970192 36.17469391 19.01970192 34.94989014 19.05101013 C26.35788399 19.27843906 17.78083255 19.69813508 9.20336914 20.24291992 C9.20336914 20.90291992 9.20336914 21.56291992 9.20336914 22.24291992 C28.01336914 22.57291992 46.82336914 22.90291992 66.20336914 23.24291992 C66.53336914 24.23291992 66.86336914 25.22291992 67.20336914 26.24291992 C47.51905895 27.06951146 27.90339506 27.379216 8.20336914 27.24291992 C8.20336914 28.23291992 8.20336914 29.22291992 8.20336914 30.24291992 C10.06735352 30.22551758 10.06735352 30.22551758 11.96899414 30.20776367 C30.39252318 30.09651678 48.79126481 30.66797173 67.20336914 31.24291992 C67.20336914 31.90291992 67.20336914 32.56291992 67.20336914 33.24291992 C60.28830704 33.53327212 53.37300571 33.81734421 46.45751953 34.09741211 C44.1137126 34.19303186 41.76996007 34.28999637 39.42626953 34.38842773 C32.71980947 34.66959697 26.01330099 34.92794655 19.30438232 35.14331055 C17.29548499 35.20783946 15.28671678 35.2765817 13.27813721 35.3503418 C10.65554733 35.4409014 8.03399727 35.50323778 5.41040039 35.55541992 C4.65724045 35.58514893 3.90408051 35.61487793 3.12809753 35.64550781 C-2.01052242 35.70170517 -4.8630901 34.50769625 -8.79663086 31.24291992 C-10.74173086 28.32526992 -11.24939402 26.61754707 -11.79663086 23.24291992 C-22.59209843 23.18434333 -33.3687964 23.32949618 -44.16018105 23.61331177 C-46.81321137 23.68279807 -49.46630389 23.74924062 -52.11943054 23.81494141 C-59.65280914 24.0018706 -67.18608204 24.19273998 -74.71923828 24.38842773 C-93.33613053 24.87024401 -111.95407243 25.33723303 -130.57781029 25.41915894 C-132.1151231 25.42660709 -133.65242412 25.43723652 -135.18969154 25.45120239 C-137.28689705 25.46878272 -139.38368757 25.47322727 -141.48095703 25.47338867 C-143.24761971 25.479552 -143.24761971 25.479552 -145.04997253 25.48583984 C-147.79663086 25.24291992 -147.79663086 25.24291992 -149.79663086 23.24291992 C-149.99194336 20.20385742 -149.99194336 20.20385742 -149.92163086 16.61791992 C-149.90358398 15.4294043 -149.88553711 14.24088867 -149.86694336 13.01635742 C-149.84374023 12.10112305 -149.82053711 11.18588867 -149.79663086 10.24291992 C-136.17167103 10.18188599 -122.54670853 10.14102733 -108.92163086 10.11791992 C-107.9192337 10.11620789 -106.91683655 10.11449585 -105.88406372 10.11273193 C-74.47117318 10.06530575 -43.16605208 10.43941803 -11.79663086 12.24291992 C-11.65999023 11.47334961 -11.52334961 10.7037793 -11.38256836 9.91088867 C-9.95606444 3.41554084 -6.70443214 -0.01115087 0 0 Z " fill="#7AC048" transform="translate(260.796630859375,27.757080078125)"/>
<path d="M0 0 C7.08152872 4.72548136 12.27471927 11.0246771 15.0625 19.0625 C15.50658774 22.01295539 15.58682326 24.89429476 15.5625 27.875 C15.55822998 28.66745117 15.55395996 29.45990234 15.54956055 30.27636719 C15.35932927 36.83968222 13.90087547 41.6631139 10.0625 47.0625 C9.010625 48.7021875 9.010625 48.7021875 7.9375 50.375 C2.24784011 55.69359511 -4.2121343 58.33395863 -12 58.625 C-20.54670682 58.20430718 -27.6283375 55.49665819 -33.46875 49.1328125 C-36.09304627 45.43367149 -37.5436299 41.34902525 -38.9375 37.0625 C-39.4325 35.5775 -39.4325 35.5775 -39.9375 34.0625 C-40.95533612 23.9568414 -39.48314421 15.17484682 -33.328125 6.8984375 C-31.63430438 5.07252995 -29.92292583 3.56306394 -27.9375 2.0625 C-27.37675781 1.63066406 -26.81601563 1.19882813 -26.23828125 0.75390625 C-18.87986441 -3.8590709 -7.66743692 -3.83371846 0 0 Z " fill="#FBFBFB" transform="translate(246.9375,140.9375)"/>
<path d="M0 0 C-0.51014329 16.78371435 -4.45406568 34.31003571 -16.1875 47 C-26.89112638 56.76025592 -40.58313587 60.48814634 -54.796875 60.10546875 C-55.52390625 60.07066406 -56.2509375 60.03585938 -57 60 C-58.03188331 51.05701134 -53.90805081 43.42429857 -48.5 36.4375 C-45.28758881 32.9759981 -41.55516436 30.0696033 -37.875 27.125 C-36.95944336 26.39108032 -36.95944336 26.39108032 -36.02539062 25.64233398 C-33.04803028 23.33064032 -30.69231992 21.73726029 -27 21 C-27 20.34 -27 19.68 -27 19 C-43.13079884 26.43783232 -55.59527198 35.34789276 -63 52 C-63.66 52 -64.32 52 -65 52 C-68.75815811 46.36276283 -68.89956149 40.6217721 -68 34 C-66.06364468 28.44450439 -63.10422341 23.24574836 -59 19 C-58.34 19 -57.68 19 -57 19 C-56.67 18.01 -56.34 17.02 -56 16 C-54.06640625 14.5 -54.06640625 14.5 -51.5625 13 C-50.75941406 12.505 -49.95632812 12.01 -49.12890625 11.5 C-40.6320764 7.42661341 -31.40300658 6.03123464 -22.1875 4.4375 C-19.8051309 4.02445372 -17.42357787 3.60666579 -15.04296875 3.18359375 C-13.48098755 2.91373657 -13.48098755 2.91373657 -11.88745117 2.63842773 C-8.99427194 2.08432709 -8.99427194 2.08432709 -6.37231445 0.92602539 C-4 0 -4 0 0 0 Z " fill="#77BF43" transform="translate(159,133)"/>
<path d="M0 0 C1.32 0 2.64 0 4 0 C3.67 3.3 3.34 6.6 3 10 C3.99 9.67 4.98 9.34 6 9 C8.33299825 8.96045766 10.66708189 8.95598268 13 9 C13.25 15.625 13.25 15.625 11 19 C11.33 16.03 11.66 13.06 12 10 C10.84113281 10.43699219 9.68226563 10.87398437 8.48828125 11.32421875 C0.92077315 13.8496804 -7.05614316 14.89305871 -14.91723633 16.14868164 C-27.42993242 18.16770611 -40.59544051 21.53793709 -48.6171875 32.13671875 C-54.18344755 40.19314777 -55.68813527 46.19407234 -55 56 C-54.15697007 59.55542252 -54.15697007 59.55542252 -53 62 C-52.34 62 -51.68 62 -51 62 C-50.90589844 61.28328125 -50.81179687 60.5665625 -50.71484375 59.828125 C-47.77678347 48.20432366 -35.43678613 38.88545862 -25.6875 33 C-22.10251655 30.93229259 -19.10482347 29.59815278 -15 29 C-15 29.66 -15 30.32 -15 31 C-16.68449748 32.17118301 -18.42495999 33.26242662 -20.1875 34.3125 C-24.39645684 36.89846577 -27.64209155 39.4254523 -31 43 C-31.66 43 -32.32 43 -33 43 C-33.26941406 43.58136719 -33.53882812 44.16273438 -33.81640625 44.76171875 C-35.00611412 47.01156235 -36.34961624 48.8286554 -37.9375 50.8125 C-41.57618078 55.61378367 -43.89481772 60.1851702 -44.57421875 66.21875 C-44.71472656 67.4665625 -44.85523437 68.714375 -45 70 C-27.66210541 68.43876779 -12.61603705 65.57675913 -0.8515625 51.609375 C5.03664765 43.3112223 7.97240881 33.87116762 10 24 C10.33 24 10.66 24 11 24 C11.02712153 25.916588 11.04645097 27.8332873 11.0625 29.75 C11.07410156 30.81734375 11.08570313 31.8846875 11.09765625 32.984375 C11.01510087 35.53368501 10.74617558 37.57933591 10 40 C10.66 40.33 11.32 40.66 12 41 C13.0194119 41.98020375 14.02246356 42.97803008 15 44 C7.77828348 59.17734732 -2.3442007 68.71293392 -17.68359375 75.12109375 C-27.42597457 78.55474905 -40.52645257 80.52492619 -50.1953125 76.10546875 C-56.87908312 72.01129757 -62.15075264 66.79934035 -64.57421875 59.19921875 C-66.82037185 47.59752889 -64.54011046 37.73866789 -58.015625 28.0546875 C-46.60975428 13.21087703 -31.88796532 8.15985016 -14 5 C-11.18453736 4.45201105 -8.37356306 3.88256868 -5.5625 3.3125 C-3.375 2.875 -1.1875 2.4375 1 2 C0.505 1.01 0.505 1.01 0 0 Z " fill="#F4F5F2" transform="translate(147,123)"/>
<path d="M0 0 C0.97629868 -0.00307663 1.95259735 -0.00615326 2.95848083 -0.00932312 C4.01769241 -0.0021376 5.07690399 0.00504791 6.16821289 0.01245117 C7.82198692 0.0131385 7.82198692 0.0131385 9.50917053 0.01383972 C11.85540841 0.01686643 14.2016442 0.02476513 16.54785156 0.03710938 C20.0678658 0.05504789 23.58761143 0.05762106 27.10766602 0.05737305 C40.50154544 0.07905232 53.83486617 0.41447886 67.20336914 1.24291992 C64.58159186 3.8646972 63.40123332 3.51343273 59.74389648 3.56176758 C58.60286469 3.58163727 57.46183289 3.60150696 56.28622437 3.62197876 C55.04974152 3.63352997 53.81325867 3.64508118 52.53930664 3.65698242 C51.27696198 3.67634857 50.01461731 3.69571472 48.71401978 3.71566772 C45.35702702 3.76541037 42.00014599 3.80664565 38.64300537 3.84381104 C35.2177125 3.88380839 31.79258768 3.93492011 28.36743164 3.98510742 C21.64618533 4.08132052 14.92486609 4.16632574 8.20336914 4.24291992 C8.20336914 5.23291992 8.20336914 6.22291992 8.20336914 7.24291992 C8.89827957 7.2384787 9.59319 7.23403748 10.30915833 7.22946167 C16.85688952 7.18939352 23.40458652 7.15893991 29.95241261 7.13929558 C33.31875143 7.12885672 36.68498899 7.11469583 40.05126953 7.09204102 C43.92100729 7.06784181 47.7906009 7.056448 51.66040039 7.04760742 C52.86984818 7.03728485 54.07929596 7.02696228 55.32539368 7.0163269 C57.00679695 7.01610031 57.00679695 7.01610031 58.72216797 7.01586914 C59.71034012 7.01142792 60.69851227 7.00698669 61.71662903 7.00241089 C64.20336914 7.24291992 64.20336914 7.24291992 67.20336914 9.24291992 C63.69386539 10.02497161 60.36177754 10.41147332 56.77050781 10.54003906 C55.70978561 10.58000504 54.64906342 10.61997101 53.55619812 10.66114807 C52.42269424 10.69973434 51.28919037 10.73832062 50.12133789 10.77807617 C48.95202225 10.82105331 47.7827066 10.86403046 46.57795715 10.90830994 C42.84905429 11.04448767 39.11997826 11.17502477 35.39086914 11.30541992 C32.86025672 11.39684495 30.32965755 11.48863745 27.79907227 11.58081055 C21.60065187 11.80577548 15.4020799 12.02611158 9.20336914 12.24291992 C8.87336914 13.23291992 8.54336914 14.22291992 8.20336914 15.24291992 C27.67336914 15.24291992 47.14336914 15.24291992 67.20336914 15.24291992 C67.20336914 15.90291992 67.20336914 16.56291992 67.20336914 17.24291992 C63.66139791 18.423577 60.39346021 18.45397372 56.70336914 18.52416992 C55.95887512 18.54226212 55.2143811 18.56035431 54.44732666 18.57899475 C52.85551304 18.61745899 51.26365158 18.65398373 49.67175293 18.68875122 C45.57266044 18.77870584 41.47395724 18.88333098 37.37524414 18.98901367 C36.17469391 19.01970192 36.17469391 19.01970192 34.94989014 19.05101013 C26.35788399 19.27843906 17.78083255 19.69813508 9.20336914 20.24291992 C9.20336914 20.90291992 9.20336914 21.56291992 9.20336914 22.24291992 C28.01336914 22.57291992 46.82336914 22.90291992 66.20336914 23.24291992 C66.69836914 24.72791992 66.69836914 24.72791992 67.20336914 26.24291992 C47.51905895 27.06951146 27.90339506 27.379216 8.20336914 27.24291992 C8.20336914 28.23291992 8.20336914 29.22291992 8.20336914 30.24291992 C9.44602539 30.23131836 10.68868164 30.2197168 11.96899414 30.20776367 C30.39252318 30.09651678 48.79126481 30.66797173 67.20336914 31.24291992 C67.20336914 31.90291992 67.20336914 32.56291992 67.20336914 33.24291992 C60.28830704 33.53327212 53.37300571 33.81734421 46.45751953 34.09741211 C44.1137126 34.19303186 41.76996007 34.28999637 39.42626953 34.38842773 C32.71980947 34.66959697 26.01330099 34.92794655 19.30438232 35.14331055 C17.29548499 35.20783946 15.28671678 35.2765817 13.27813721 35.3503418 C10.65554733 35.4409014 8.03399727 35.50323778 5.41040039 35.55541992 C4.65724045 35.58514893 3.90408051 35.61487793 3.12809753 35.64550781 C-2.20829296 35.70386804 -4.75878926 34.45828961 -8.79663086 31.24291992 C-5.79663086 30.24291992 -5.79663086 30.24291992 -3.79663086 30.24291992 C-3.15725586 29.91291992 -2.51788086 29.58291992 -1.85913086 29.24291992 C0.20336914 28.24291992 0.20336914 28.24291992 3.20336914 28.24291992 C2.21336914 23.62291992 1.22336914 19.00291992 0.20336914 14.24291992 C-2.76663086 13.74791992 -2.76663086 13.74791992 -5.79663086 13.24291992 C-5.79663086 14.89291992 -5.79663086 16.54291992 -5.79663086 18.24291992 C-9.53150863 17.74493622 -11.6090072 17.36800236 -14.79663086 15.24291992 C-16.81912665 14.79015244 -16.81912665 14.79015244 -19.02709961 14.61010742 C-19.82954102 14.52631836 -20.63198242 14.4425293 -21.45874023 14.35620117 C-22.29211914 14.27756836 -23.12549805 14.19893555 -23.98413086 14.11791992 C-25.25160156 13.98836914 -25.25160156 13.98836914 -26.54467773 13.85620117 C-28.62792009 13.64434602 -30.71219128 13.44265215 -32.79663086 13.24291992 C-32.79663086 12.91291992 -32.79663086 12.58291992 -32.79663086 12.24291992 C-25.86663086 12.24291992 -18.93663086 12.24291992 -11.79663086 12.24291992 C-11.46663086 10.59291992 -11.13663086 8.94291992 -10.79663086 7.24291992 C-8.15485688 2.07945259 -5.86955203 -0.00976229 0 0 Z " fill="#7BBC4C" transform="translate(260.796630859375,27.757080078125)"/>
<path d="M0 0 C1.88237617 0.01055923 1.88237617 0.01055923 3.80278015 0.02133179 C5.17524812 0.03431076 6.54771514 0.04739089 7.92018127 0.06056213 C9.37932026 0.0707169 10.83846253 0.08040925 12.29760742 0.0896759 C16.24339351 0.11603704 20.18910249 0.14884038 24.13482928 0.1828258 C28.26410424 0.21728813 32.39342029 0.24579046 36.5227356 0.27493286 C44.33530065 0.33097118 52.14781423 0.392347 59.96032339 0.4556542 C68.85750517 0.52748993 77.75472804 0.59335449 86.6519593 0.65872467 C104.94788174 0.79328278 123.24373934 0.93531619 141.53956604 1.08229065 C141.53956604 3.72229065 141.53956604 6.36229065 141.53956604 9.08229065 C94.51456604 9.57729065 94.51456604 9.57729065 46.53956604 10.08229065 C47.03456604 11.07229065 47.03456604 11.07229065 47.53956604 12.08229065 C45.91616799 13.7911307 44.24637551 15.45675782 42.53956604 17.08229065 C41.87956604 17.08229065 41.21956604 17.08229065 40.53956604 17.08229065 C40.23019104 17.88666565 39.92081604 18.69104065 39.60206604 19.51979065 C38.53956604 22.08229065 38.53956604 22.08229065 37.53956604 23.08229065 C34.67689037 23.15554233 31.83884704 23.1746727 28.97706604 23.14479065 C28.17075745 23.14027893 27.36444885 23.13576721 26.53370667 23.13111877 C24.53562848 23.11929583 22.53758821 23.10135979 20.53956604 23.08229065 C21.03456604 21.59729065 21.03456604 21.59729065 21.53956604 20.08229065 C21.14559269 17.44424476 21.14559269 17.44424476 20.53956604 15.08229065 C24.45359553 16.35170562 26.33029477 17.59396759 28.53956604 21.08229065 C32.40094065 19.96678243 34.83477731 19.05755826 37.53956604 16.08229065 C38.19956604 16.08229065 38.85956604 16.08229065 39.53956604 16.08229065 C40.96215416 12.25908508 41.7799888 9.1694776 41.53956604 5.08229065 C40.87956604 5.08229065 40.21956604 5.08229065 39.53956604 5.08229065 C39.53956604 4.42229065 39.53956604 3.76229065 39.53956604 3.08229065 C38.45310539 3.32627846 38.45310539 3.32627846 37.34469604 3.57519531 C34.70232571 4.05286789 32.33669823 4.20303764 29.65748596 4.19581604 C28.71688828 4.19574051 27.77629059 4.19566498 26.80718994 4.19558716 C25.80492874 4.19042587 24.80266754 4.18526459 23.77003479 4.1799469 C22.73389542 4.17853195 21.69775604 4.177117 20.63021851 4.17565918 C17.329138 4.17007307 14.02812596 4.15752307 10.72706604 4.14479065 C8.48553056 4.13977386 6.24399402 4.13521126 4.00245667 4.13111877 C-1.4851968 4.12010818 -6.97281049 4.10338383 -12.46043396 4.08229065 C-12.79043396 3.09229065 -13.12043396 2.10229065 -13.46043396 1.08229065 C-8.92296892 0.35708588 -4.59309999 -0.03512141 0 0 Z " fill="#75C13E" transform="translate(184.46043395996094,241.91770935058594)"/>
<path d="M0 0 C0.74636719 0.16242188 1.49273437 0.32484375 2.26171875 0.4921875 C7.45363883 1.197464 12.57948324 1.1444175 17.8125 1.125 C19.40481445 1.13080078 19.40481445 1.13080078 21.02929688 1.13671875 C22.54040039 1.13478516 22.54040039 1.13478516 24.08203125 1.1328125 C25.00218018 1.13168457 25.9223291 1.13055664 26.87036133 1.12939453 C28.98382523 1.23714851 28.98382523 1.23714851 30 0 C32.33297433 -0.04092937 34.66705225 -0.04241723 37 0 C37 0.66 37 1.32 37 2 C41.95 2 46.9 2 52 2 C52 2.66 52 3.32 52 4 C52.86306165 3.99723462 53.72612329 3.99446924 54.61533833 3.99162006 C75.59620522 3.92542455 96.57705416 3.87575079 117.55800343 3.84456348 C127.70415301 3.82908144 137.85023298 3.80796642 147.99633789 3.77368164 C156.83762507 3.74382017 165.67886184 3.72443473 174.52019805 3.71773452 C179.20349375 3.71381673 183.88664522 3.70458174 188.56989479 3.68280983 C192.97506191 3.662496 197.38002494 3.65615581 201.78523445 3.66067696 C203.40460569 3.65984946 205.02398353 3.65385344 206.64331436 3.64238358 C208.84956508 3.62751887 211.05503912 3.63102374 213.26130676 3.63923645 C214.49743115 3.63647107 215.73355555 3.63370569 217.00713825 3.63085651 C220 4 220 4 221.89406872 5.37411022 C223.42834267 7.62972988 223.4334687 9.29096452 223.4375 12 C223.45683594 12.86625 223.47617187 13.7325 223.49609375 14.625 C223 17 223 17 221.53094482 18.62141418 C217.75046448 20.68061221 214.25091547 20.43949134 210.00878906 20.43237305 C209.10112289 20.4425647 208.19345673 20.45275635 207.25828552 20.46325684 C204.26066958 20.49343062 201.26337297 20.50265954 198.265625 20.51171875 C196.18624811 20.52856217 194.10688142 20.54671195 192.02752686 20.56611633 C186.55640857 20.61365894 181.08533165 20.64344083 175.61407471 20.66955566 C170.03039378 20.69933962 164.44685543 20.7458774 158.86328125 20.79101562 C147.90892868 20.87709727 136.95454681 20.94442101 126 21 C125.82210937 21.91072266 125.82210937 21.91072266 125.640625 22.83984375 C124.40878435 26.99355033 120.90115519 29.38457694 117.4375 31.75 C113.40941483 33.8156847 110.21316571 34.11143827 105.71240234 33.88574219 C104.13088882 33.81006012 104.13088882 33.81006012 102.51742554 33.73284912 C101.38503448 33.67147766 100.25264343 33.6101062 99.0859375 33.546875 C97.91995026 33.48598694 96.75396301 33.42509888 95.55264282 33.36236572 C93.08960384 33.23105587 90.62674405 33.09634714 88.1640625 32.95849609 C84.38343116 32.75046393 80.60211251 32.56430789 76.8203125 32.37890625 C74.42961393 32.24874001 72.03898571 32.117274 69.6484375 31.984375 C68.51199799 31.93110046 67.37555847 31.87782593 66.2046814 31.82293701 C65.15664337 31.75987366 64.10860535 31.6968103 63.02880859 31.63183594 C62.10377533 31.58218689 61.17874207 31.53253784 60.22567749 31.48138428 C58 31 58 31 56 28 C57.64096885 28.10134762 59.28192908 28.20283619 60.92285156 28.30493164 C62.37656359 28.39500075 63.8303427 28.48399245 65.28417969 28.57202148 C68.66614924 28.77929644 72.041479 29.00350794 75.41796875 29.2890625 C84.14085029 30.004891 92.87606003 30.23185781 101.625 30.375 C102.85959961 30.41310791 104.09419922 30.45121582 105.36621094 30.49047852 C112.1258934 30.68974379 112.1258934 30.68974379 118.0234375 27.8515625 C119.39463365 25.87335461 120.73990552 23.87702317 122.06419373 21.86711121 C124.24859905 19.29156553 125.70724725 18.55624661 129.06703186 18.26069641 C130.69430981 18.23482046 132.322313 18.24169888 133.94946289 18.2746582 C134.84109634 18.26884735 135.7327298 18.2630365 136.65138245 18.25704956 C139.59247129 18.2442629 142.53169625 18.27294563 145.47265625 18.30078125 C147.5185979 18.29714754 149.5645362 18.29044618 151.61045837 18.2808075 C156.99315699 18.26173323 162.3752108 18.27577692 167.75787354 18.29931641 C176.37677775 18.33370097 184.99552263 18.32794381 193.61443901 18.3031826 C196.62591764 18.30080824 199.63680469 18.31863197 202.64820862 18.3384552 C204.49211633 18.3387033 206.33602427 18.33830592 208.17993164 18.3371582 C209.43697906 18.35345024 209.43697906 18.35345024 210.71942139 18.37007141 C214.02679236 18.35351181 216.53590235 18.23916749 219.50437927 16.70939636 C221.80034339 14.08526001 221.74453198 11.38495124 222 8 C218.33325294 5.68619152 215.18968356 5.74000744 210.91427612 5.7215271 C209.84257429 5.7128385 209.84257429 5.7128385 208.74922192 5.70397437 C206.3534395 5.68696325 203.95784967 5.68409649 201.56201172 5.68115234 C199.84320607 5.67185214 198.12440492 5.66168333 196.40560913 5.65071106 C191.72603601 5.62333566 187.04649319 5.60822743 182.36686087 5.59528303 C177.43929245 5.57960444 172.51178435 5.55280523 167.58425903 5.5272522 C158.21135582 5.48036388 148.83844079 5.44370487 139.46547997 5.41057932 C128.93695367 5.37283367 118.40849521 5.32310527 107.88002372 5.27259517 C73.25330985 5.10761676 38.62716234 4.96665005 4 5 C4 5.66 4 6.32 4 7 C4.61875 7.268125 5.2375 7.53625 5.875 7.8125 C8 9 8 9 10 12 C6.51375944 11.3543999 3.87501211 10.07639763 1 8 C1 7.01 1 6.02 1 5 C0.34 5 -0.32 5 -1 5 C-0.67 3.35 -0.34 1.7 0 0 Z " fill="#E8F8DA" transform="translate(107,236)"/>
<path d="M0 0 C0.97629868 -0.00307663 1.95259735 -0.00615326 2.95848083 -0.00932312 C4.01769241 -0.0021376 5.07690399 0.00504791 6.16821289 0.01245117 C7.82198692 0.0131385 7.82198692 0.0131385 9.50917053 0.01383972 C11.85540841 0.01686643 14.2016442 0.02476513 16.54785156 0.03710938 C20.0678658 0.05504789 23.58761143 0.05762106 27.10766602 0.05737305 C40.50154544 0.07905232 53.83486617 0.41447886 67.20336914 1.24291992 C64.58159186 3.8646972 63.40123332 3.51343273 59.74389648 3.56176758 C58.60286469 3.58163727 57.46183289 3.60150696 56.28622437 3.62197876 C55.04974152 3.63352997 53.81325867 3.64508118 52.53930664 3.65698242 C51.27696198 3.67634857 50.01461731 3.69571472 48.71401978 3.71566772 C45.35702702 3.76541037 42.00014599 3.80664565 38.64300537 3.84381104 C35.2177125 3.88380839 31.79258768 3.93492011 28.36743164 3.98510742 C21.64618533 4.08132052 14.92486609 4.16632574 8.20336914 4.24291992 C8.20336914 5.23291992 8.20336914 6.22291992 8.20336914 7.24291992 C8.89827957 7.2384787 9.59319 7.23403748 10.30915833 7.22946167 C16.85688952 7.18939352 23.40458652 7.15893991 29.95241261 7.13929558 C33.31875143 7.12885672 36.68498899 7.11469583 40.05126953 7.09204102 C43.92100729 7.06784181 47.7906009 7.056448 51.66040039 7.04760742 C52.86984818 7.03728485 54.07929596 7.02696228 55.32539368 7.0163269 C57.00679695 7.01610031 57.00679695 7.01610031 58.72216797 7.01586914 C59.71034012 7.01142792 60.69851227 7.00698669 61.71662903 7.00241089 C64.20336914 7.24291992 64.20336914 7.24291992 67.20336914 9.24291992 C62.53135709 10.44860045 57.98840622 10.33674418 53.20336914 10.24291992 C53.20336914 9.91291992 53.20336914 9.58291992 53.20336914 9.24291992 C37.69336914 9.24291992 22.18336914 9.24291992 6.20336914 9.24291992 C5.87336914 15.51291992 5.54336914 21.78291992 5.20336914 28.24291992 C4.54336914 28.24291992 3.88336914 28.24291992 3.20336914 28.24291992 C2.21336914 23.62291992 1.22336914 19.00291992 0.20336914 14.24291992 C-2.76663086 13.74791992 -2.76663086 13.74791992 -5.79663086 13.24291992 C-5.79663086 14.89291992 -5.79663086 16.54291992 -5.79663086 18.24291992 C-9.53150863 17.74493622 -11.6090072 17.36800236 -14.79663086 15.24291992 C-16.81912665 14.79015244 -16.81912665 14.79015244 -19.02709961 14.61010742 C-19.82954102 14.52631836 -20.63198242 14.4425293 -21.45874023 14.35620117 C-22.29211914 14.27756836 -23.12549805 14.19893555 -23.98413086 14.11791992 C-25.25160156 13.98836914 -25.25160156 13.98836914 -26.54467773 13.85620117 C-28.62792009 13.64434602 -30.71219128 13.44265215 -32.79663086 13.24291992 C-32.79663086 12.91291992 -32.79663086 12.58291992 -32.79663086 12.24291992 C-25.86663086 12.24291992 -18.93663086 12.24291992 -11.79663086 12.24291992 C-11.46663086 10.59291992 -11.13663086 8.94291992 -10.79663086 7.24291992 C-8.15485688 2.07945259 -5.86955203 -0.00976229 0 0 Z " fill="#7DBC52" transform="translate(260.796630859375,27.757080078125)"/>
<path d="M0 0 C19.34995447 -0.17898211 38.66296423 0.37670592 58 1 C58.2109375 7.6484375 58.2109375 7.6484375 56.3125 10.8125 C53.93334668 13.06305044 52.10843279 14.05020109 49 15 C49 14.01 49 13.02 49 12 C48.27425781 11.70996094 47.54851562 11.41992188 46.80078125 11.12109375 C45.08621124 10.43478748 43.37450196 9.74120936 41.66796875 9.03515625 C28.37341291 3.82201546 14.10102573 2.48339998 0 1 C0 0.67 0 0.34 0 0 Z " fill="#E7F3DA" transform="translate(165,247)"/>
<path d="M0 0 C1.32 0 2.64 0 4 0 C4 0.99 4 1.98 4 3 C3.34 3.33 2.68 3.66 2 4 C2.66 4.33 3.32 4.66 4 5 C3.67 5.99 3.34 6.98 3 8 C-16.47 8 -35.94 8 -56 8 C-55.67 6.68 -55.34 5.36 -55 4 C-54.34045319 3.97938507 -53.68090637 3.95877014 -53.00137329 3.93753052 C-46.15577387 3.7216826 -39.31071614 3.49246573 -32.46582031 3.25537109 C-29.90896911 3.16858248 -27.35199861 3.08523899 -24.79492188 3.00537109 C-21.12593575 2.89018199 -17.45755274 2.7627338 -13.7890625 2.6328125 C-12.64007477 2.59938751 -11.49108704 2.56596252 -10.30728149 2.53152466 C-9.2463327 2.49163422 -8.18538391 2.45174377 -7.09228516 2.41064453 C-5.68663803 2.36401169 -5.68663803 2.36401169 -4.25259399 2.31643677 C-1.80125633 2.20249988 -1.80125633 2.20249988 0 0 Z " fill="#E8F7DA" transform="translate(325,35)"/>
<path d="M0 0 C20.79 0 41.58 0 63 0 C63 0.33 63 0.66 63 1 C88.00367461 2.06882465 112.97732319 2.11194673 138 2 C138 2.99 138 3.98 138 5 C127.9708105 5.09864777 117.96150286 5.07617505 107.93888855 4.66746521 C87.03935429 3.81642888 66.12901438 3.67375728 45.215271 3.46777344 C40.09856508 3.4166136 34.98190247 3.36143216 29.86523438 3.30664062 C19.91019363 3.20060459 9.95511453 3.09884853 0 3 C0 7.29 0 11.58 0 16 C-0.66 16 -1.32 16 -2 16 C-3.09321611 11.49048355 -4.13999677 6.27999354 -2 2 C-1.34 2 -0.68 2 0 2 C0 1.34 0 0.68 0 0 Z " fill="#EEFDE6" transform="translate(111,35)"/>
<path d="M0 0 C0 0.99 0 1.98 0 3 C-0.33 2.67 -0.66 2.34 -1 2 C-10.04286755 1.46035314 -19.17038438 2.29634352 -28.1875 2.9375 C-29.52146714 3.0256519 -30.85545147 3.11354388 -32.18945312 3.20117188 C-33.44048828 3.28818359 -34.69152344 3.37519531 -35.98046875 3.46484375 C-37.11379639 3.543396 -38.24712402 3.62194824 -39.41479492 3.70288086 C-41.92748588 3.72023731 -41.92748588 3.72023731 -43 5 C-45.92272767 5.0651999 -48.82056718 5.06494032 -51.74243164 5.02172852 C-52.6594133 5.01212097 -53.57639496 5.00251343 -54.52116394 4.99261475 C-57.56756979 4.95949922 -60.61383777 4.91921503 -63.66015625 4.87890625 C-65.76622524 4.85461739 -67.87229941 4.83077323 -69.9783783 4.80735779 C-75.53347648 4.74439404 -81.0884836 4.67536243 -86.64349365 4.60510254 C-92.30720863 4.5345298 -97.9709884 4.46964676 -103.63476562 4.40429688 C-114.75658162 4.27512622 -125.87830975 4.13955058 -137 4 C-137 3.01 -137 2.02 -137 1 C-136.67 1.33 -136.34 1.66 -136 2 C-133.92935335 2.10175345 -131.85512675 2.13083588 -129.78198242 2.1328125 C-129.12627321 2.13417709 -128.470564 2.13554169 -127.79498482 2.13694763 C-125.58593203 2.13901407 -123.37700861 2.1325311 -121.16796875 2.125 C-120.39845572 2.12378143 -119.62894268 2.12256287 -118.83611107 2.12130737 C-99.26022533 2.0854973 -79.6948 1.58119673 -60.12658691 1.07287598 C-52.61473683 0.87834275 -45.10272314 0.69038927 -37.59065819 0.50436401 C-35.0185805 0.43982841 -32.44658555 0.37257569 -29.87458801 0.30493164 C-19.91339293 0.04996579 -9.96464851 -0.05406853 0 0 Z " fill="#E9FADD" transform="translate(249,50)"/>
<path d="M0 0 C1.34752602 0.01331612 1.34752602 0.01331612 2.72227478 0.02690125 C5.67229199 0.06317789 8.61947005 0.14237151 11.56860352 0.22216797 C13.62121978 0.25581937 15.67388183 0.28677634 17.72657776 0.31515503 C23.11459934 0.39685816 28.50122049 0.51504408 33.8883667 0.64093018 C39.39142657 0.76303544 44.89502603 0.85050363 50.39868164 0.94091797 C61.18659845 1.12323377 71.97335289 1.34410972 82.76000977 1.58935547 C82.76000977 1.91935547 82.76000977 2.24935547 82.76000977 2.58935547 C81.62519165 2.57967743 80.49037354 2.56999939 79.32116699 2.56002808 C68.61009479 2.47522278 57.89998108 2.44318311 47.18857574 2.46238518 C41.68192289 2.47057222 36.17659984 2.46037423 30.67016602 2.40771484 C25.35274077 2.35754676 20.03731469 2.35625468 14.71977234 2.38840103 C12.69442939 2.39214323 10.66897477 2.37847384 8.64387512 2.34685898 C-2.42297491 1.77808121 -2.42297491 1.77808121 -12.23925781 5.8604126 C-14.22327617 8.35242089 -15.73224409 10.79500688 -17.23999023 13.58935547 C-19.92997379 14.93434725 -22.02299311 14.71898643 -25.03295898 14.72216797 C-26.80558105 14.72506836 -26.80558105 14.72506836 -28.61401367 14.72802734 C-29.87246094 14.72351563 -31.1309082 14.71900391 -32.42749023 14.71435547 C-33.69496094 14.71242188 -34.96243164 14.71048828 -36.26831055 14.70849609 C-44.96424341 14.66839187 -53.58195293 14.41393045 -62.23999023 13.58935547 C-62.23999023 13.25935547 -62.23999023 12.92935547 -62.23999023 12.58935547 C-60.95310303 12.58524658 -59.66621582 12.5811377 -58.34033203 12.5769043 C-53.57088023 12.55515123 -48.80225793 12.50090144 -44.03320312 12.43676758 C-41.96817976 12.41355412 -39.90303744 12.39918404 -37.83789062 12.39379883 C-34.87090638 12.38453368 -31.90580179 12.34359727 -28.93920898 12.29638672 C-28.01412033 12.30031937 -27.08903168 12.30425201 -26.13591003 12.30830383 C-23.73872987 12.25359265 -21.57061159 12.15347554 -19.23999023 11.58935547 C-17.44750896 9.41968454 -17.44750896 9.41968454 -16.23999023 6.58935547 C-11.40029537 0.91018232 -7.26159902 -0.26888487 0 0 Z " fill="#9CC978" transform="translate(241.239990234375,252.41064453125)"/>
<path d="M0 0 C1 2 1 2 0.3125 4.4375 C-1 7 -1 7 -3.04959488 8.22949696 C-5.3102348 9.91387584 -5.3102348 9.91387584 -5.50780869 13.05533123 C-5.51149586 14.320953 -5.51518303 15.58657476 -5.51898193 16.89054871 C-5.53023381 17.94795013 -5.53023381 17.94795013 -5.541713 19.02671319 C-5.56205288 21.39465178 -5.55387576 23.76163857 -5.54589844 26.12963867 C-5.55463008 27.82465058 -5.56511443 29.51965425 -5.57722473 31.21464539 C-5.6051556 35.82182403 -5.60848786 40.42873467 -5.60750484 45.03598571 C-5.61062788 49.84870307 -5.63623332 54.66129862 -5.65948486 59.47395325 C-5.70009524 68.58992168 -5.72039739 77.70581849 -5.73345876 86.82186347 C-5.74931177 97.19906722 -5.78772019 107.57614878 -5.82805204 117.95328176 C-5.91051991 139.30214758 -5.96456895 160.65100773 -6 182 C-6.33 182 -6.66 182 -7 182 C-7.09343231 159.54726628 -7.16397384 137.09456461 -7.20724869 114.64167595 C-7.22787583 104.21645485 -7.25599941 93.79135452 -7.30175781 83.36621094 C-7.34162083 74.27988388 -7.36743171 65.19364429 -7.37635398 56.10723221 C-7.38156962 51.295803 -7.39383152 46.48462402 -7.42292023 41.67327499 C-7.45008083 37.1441221 -7.45844368 32.61532241 -7.45243073 28.08609581 C-7.45353067 26.42443739 -7.46148082 24.76276709 -7.4768219 23.10117912 C-7.4967607 20.83011238 -7.49192607 18.56037441 -7.48101807 16.28927612 C-7.48470524 15.01904539 -7.48839241 13.74881466 -7.49219131 12.44009209 C-6.73857662 7.17282327 -3.89985796 3.50987216 0 0 Z " fill="#F0EEEF" transform="translate(40,53)"/>
<path d="M0 0 C0 0.66 0 1.32 0 2 C-1.68449748 3.17118301 -3.42495999 4.26242662 -5.1875 5.3125 C-9.39645684 7.89846577 -12.64209155 10.4254523 -16 14 C-16.66 14 -17.32 14 -18 14 C-18.26941406 14.58136719 -18.53882812 15.16273438 -18.81640625 15.76171875 C-20.00611412 18.01156235 -21.34961624 19.8286554 -22.9375 21.8125 C-27.55050697 27.89941895 -29.34152459 33.49338038 -30 41 C-30.33 41 -30.66 41 -31 41 C-31.3540919 34.48208608 -31.03901852 29.82478551 -28 24 C-29.65 25.32 -31.3 26.64 -33 28 C-33 22.2363527 -27.79273054 17.85773413 -23.953125 13.87890625 C-18.03633927 8.34001742 -8.52903512 0 0 0 Z " fill="#DEF4CC" transform="translate(132,152)"/>
<path d="M0 0 C11.6776402 -0.0724819 23.32837415 0.14796108 35 0.5 C36.66145218 0.54838866 38.32291052 0.59656674 39.984375 0.64453125 C43.98965799 0.76060571 47.99484822 0.87948647 52 1 C52 1.66 52 2.32 52 3 C45.0849379 3.2903522 38.16963657 3.57442429 31.25415039 3.85449219 C28.91034346 3.95011194 26.56659093 4.04707644 24.22290039 4.14550781 C10.13984116 4.73594195 -3.90397146 5.15399652 -18 5 C-18 4.67 -18 4.34 -18 4 C-16.35451172 3.90912109 -16.35451172 3.90912109 -14.67578125 3.81640625 C-13.22134346 3.73195502 -11.76691695 3.64730934 -10.3125 3.5625 C-9.59126953 3.52318359 -8.87003906 3.48386719 -8.12695312 3.44335938 C-4.33292718 3.21814322 -0.71348508 2.87160695 3 2 C2.01 1.34 1.02 0.68 0 0 Z " fill="#8BB962" transform="translate(276,58)"/>
<path d="M0 0 C0.74636719 0.16242188 1.49273437 0.32484375 2.26171875 0.4921875 C7.45363883 1.197464 12.57948324 1.1444175 17.8125 1.125 C19.40481445 1.13080078 19.40481445 1.13080078 21.02929688 1.13671875 C22.54040039 1.13478516 22.54040039 1.13478516 24.08203125 1.1328125 C25.00218018 1.13168457 25.9223291 1.13055664 26.87036133 1.12939453 C28.98382523 1.23714851 28.98382523 1.23714851 30 0 C32.33297433 -0.04092937 34.66705225 -0.04241723 37 0 C37 0.66 37 1.32 37 2 C41.95 2 46.9 2 52 2 C52 2.66 52 3.32 52 4 C36.16 4.33 20.32 4.66 4 5 C4 5.66 4 6.32 4 7 C4.61875 7.268125 5.2375 7.53625 5.875 7.8125 C8 9 8 9 10 12 C6.51375944 11.3543999 3.87501211 10.07639763 1 8 C1 7.01 1 6.02 1 5 C0.34 5 -0.32 5 -1 5 C-0.67 3.35 -0.34 1.7 0 0 Z " fill="#EEFCE4" transform="translate(107,236)"/>
<path d="M0 0 C0 0.33 0 0.66 0 1 C-15.84 1.495 -15.84 1.495 -32 2 C-28.92342662 2.76914334 -26.55594843 3.16965109 -23.453125 3.31640625 C-22.60878906 3.35830078 -21.76445312 3.40019531 -20.89453125 3.44335938 C-19.58548828 3.50233398 -19.58548828 3.50233398 -18.25 3.5625 C-17.36183594 3.60568359 -16.47367187 3.64886719 -15.55859375 3.69335938 C-13.37254037 3.79913615 -11.18637911 3.90122546 -9 4 C-9 4.33 -9 4.66 -9 5 C-24.18 5 -39.36 5 -55 5 C-55 3.68 -55 2.36 -55 1 C-36.69117634 -0.3855326 -18.34701605 -0.09694789 0 0 Z " fill="#DDF5C9" transform="translate(325,46)"/>
<path d="M0 0 C0.5534764 2.07553648 1 3.84365964 1 6 C2.98 6 4.96 6 7 6 C3.27794502 12.25305237 -1.34435271 16.90570784 -8 20 C-8 17 -8 17 -7 16 C-7.33 15.34 -7.66 14.68 -8 14 C-8.9075 14.350625 -9.815 14.70125 -10.75 15.0625 C-14.00591313 16.00170571 -14.92749994 15.95514676 -18 15 C-17.35933594 14.64808594 -16.71867188 14.29617187 -16.05859375 13.93359375 C-9.93827325 10.44017684 -3.26427146 6.52854293 0 0 Z " fill="#E6F2E1" transform="translate(147,173)"/>
<path d="M0 0 C0.66 0 1.32 0 2 0 C2 1.98 2 3.96 2 6 C-1.63 6 -5.26 6 -9 6 C-9 5.34 -9 4.68 -9 4 C-10.65128906 4.10828125 -10.65128906 4.10828125 -12.3359375 4.21875 C-32.53792484 5.39270017 -52.7729428 5.09154426 -73 5 C-73.33 4.01 -73.66 3.02 -74 2 C-73.50113281 2.16242187 -73.00226563 2.32484375 -72.48828125 2.4921875 C-69.05408895 3.19304307 -65.67626152 3.14590644 -62.1875 3.125 C-60.97404907 3.12209961 -60.97404907 3.12209961 -59.73608398 3.11914062 C-51.00130843 3.06154342 -42.27424443 2.73691258 -33.54547119 2.42880249 C-22.35736692 2.03552511 -11.19374205 1.88020966 0 2 C0 1.34 0 0.68 0 0 Z " fill="#EBFAE4" transform="translate(328,59)"/>
<path d="M0 0 C-0.25680094 7.10054603 -0.93387143 12.09755529 -5 18 C-5.66 18 -6.32 18 -7 18 C-7.33 18.66 -7.66 19.32 -8 20 C-8.66 19.67 -9.32 19.34 -10 19 C-10 15.04 -10 11.08 -10 7 C-9.34 7 -8.68 7 -8 7 C-8.0825 6.236875 -8.165 5.47375 -8.25 4.6875 C-8 2 -8 2 -6.25 0.125 C-3.56220874 -1.21889563 -2.77307609 -0.85056536 0 0 Z " fill="#77BE44" transform="translate(102,161)"/>
<path d="M0 0 C-3.87408462 2.13149443 -7.40192042 2.42701882 -11.75 2.625 C-15.33875 2.810625 -15.33875 2.810625 -19 3 C-9.43 3.33 0.14 3.66 10 4 C10 4.33 10 4.66 10 5 C-7.70218177 5.11759242 -25.31752148 4.97271002 -43 4 C-43 3.01 -43 2.02 -43 1 C-38.96567641 0.8546329 -34.93125485 0.71238319 -30.89672852 0.57275391 C-29.53048901 0.52506275 -28.16427658 0.47658822 -26.7980957 0.42724609 C-17.86113428 0.10513421 -8.94279366 -0.06870997 0 0 Z " fill="#E4F8D6" transform="translate(312,54)"/>
<path d="M0 0 C1 3 1 3 0.5 4.9375 C-0.07702481 7.31772734 0.25977147 8.69706679 1 11 C0.34 10.34 -0.32 9.68 -1 9 C-4.00081974 8.61329449 -6.93080188 8.34123556 -9.9453125 8.1484375 C-10.8303244 8.08467926 -11.7153363 8.02092102 -12.62716675 7.95523071 C-15.45924711 7.7531958 -18.2920202 7.56396124 -21.125 7.375 C-23.04302794 7.24042425 -24.96099781 7.10501813 -26.87890625 6.96875 C-31.58531735 6.63618751 -36.29238907 6.31510367 -41 6 C-41 5.67 -41 5.34 -41 5 C-36.41443228 4.10336328 -32.0829778 3.88366809 -27.4140625 3.90234375 C-26.71227875 3.9037587 -26.010495 3.90517365 -25.28744507 3.90663147 C-23.06658496 3.9121871 -20.84582916 3.92473108 -18.625 3.9375 C-17.11067855 3.94252074 -15.5963555 3.94708264 -14.08203125 3.95117188 C-10.38798748 3.96214193 -6.69400394 3.97937551 -3 4 C-3 3.34 -3 2.68 -3 2 C-2.01 2 -1.02 2 0 2 C0 1.34 0 0.68 0 0 Z " fill="#F0FAEE" transform="translate(328,43)"/>
<path d="M0 0 C19.8 0.66 39.6 1.32 60 2 C60 2.33 60 2.66 60 3 C40.2 3 20.4 3 0 3 C0 7.29 0 11.58 0 16 C-0.66 16 -1.32 16 -2 16 C-3.09321611 11.49048355 -4.13999677 6.27999354 -2 2 C-1.34 2 -0.68 2 0 2 C0 1.34 0 0.68 0 0 Z " fill="#DAF4C8" transform="translate(111,35)"/>
<path d="M0 0 C0.66 1.98 1.32 3.96 2 6 C4.97 6.495 4.97 6.495 8 7 C8 6.34 8 5.68 8 5 C12.62 5 17.24 5 22 5 C22 5.33 22 5.66 22 6 C21.42668945 6.08975098 20.85337891 6.17950195 20.26269531 6.27197266 C8.86303875 8.10789809 -1.00518197 9.99968043 -11 16 C-12.32744233 16.67832078 -13.65871003 17.34948985 -15 18 C-15 17.01 -15 16.02 -15 15 C-13.35 14.67 -11.7 14.34 -10 14 C-10 13.34 -10 12.68 -10 12 C-9.1028125 11.6596875 -9.1028125 11.6596875 -8.1875 11.3125 C-5.43648112 9.66188867 -4.47515363 7.8027919 -3 5 C-3.99 4.67 -4.98 4.34 -6 4 C-6.33 3.34 -6.66 2.68 -7 2 C-2.25 0 -2.25 0 0 0 Z " fill="#F0FBEB" transform="translate(117,132)"/>
<path d="M0 0 C1.02574883 0.00424484 1.02574883 0.00424484 2.07221985 0.00857544 C4.2527529 0.01975566 6.4328727 0.04485559 8.61328125 0.0703125 C10.09309302 0.08034512 11.57291124 0.08947048 13.05273438 0.09765625 C16.67721725 0.11968769 20.30145891 0.15420248 23.92578125 0.1953125 C24.42078125 1.6803125 24.42078125 1.6803125 24.92578125 3.1953125 C8.58655669 3.83499893 -7.72145744 4.36664527 -24.07421875 4.1953125 C-24.07421875 3.8653125 -24.07421875 3.5353125 -24.07421875 3.1953125 C-23.09839844 3.14632812 -22.12257813 3.09734375 -21.1171875 3.046875 C-19.84488281 2.97210938 -18.57257813 2.89734375 -17.26171875 2.8203125 C-15.36486328 2.71589844 -15.36486328 2.71589844 -13.4296875 2.609375 C-8.34656761 1.98212156 -5.47076591 -0.04465931 0 0 Z " fill="#9CC579" transform="translate(303.07421875,50.8046875)"/>
<path d="M0 0 C0 7.26 0 14.52 0 22 C-0.33 22 -0.66 22 -1 22 C-1.99 17.71 -2.98 13.42 -4 9 C-9.57836298 8.68377223 -9.57836298 8.68377223 -13 10 C-12.78233948 6.19094094 -12.00605451 5.00633611 -9.3125 2.1875 C-6 0 -6 0 0 0 Z " fill="#E0FAD2" transform="translate(265,33)"/>
<path d="M0 0 C1.28583984 0.00451172 2.57167969 0.00902344 3.89648438 0.01367188 C7.03520653 0.02533999 10.17382728 0.04170985 13.3125 0.0625 C13.3125 0.3925 13.3125 0.7225 13.3125 1.0625 C5.3925 1.5575 5.3925 1.5575 -2.6875 2.0625 C2.5925 2.3925 7.8725 2.7225 13.3125 3.0625 C13.3125 3.3925 13.3125 3.7225 13.3125 4.0625 C0.4425 4.0625 -12.4275 4.0625 -25.6875 4.0625 C-25.6875 3.0725 -25.6875 2.0825 -25.6875 1.0625 C-17.10824698 0.07944905 -8.62886443 -0.05815202 0 0 Z " fill="#DEF4CA" transform="translate(294.6875,30.9375)"/>
<path d="M0 0 C1.32 0 2.64 0 4 0 C4 0.66 4 1.32 4 2 C4.69491043 1.99555878 5.38982086 1.99111755 6.10578918 1.98654175 C12.65352038 1.9464736 19.20121738 1.91601999 25.74904346 1.89637566 C29.11538229 1.8859368 32.48161985 1.87177591 35.84790039 1.84912109 C39.71763815 1.82492189 43.58723176 1.81352808 47.45703125 1.8046875 C48.66647903 1.79436493 49.87592682 1.78404236 51.12202454 1.77340698 C52.80342781 1.77318039 52.80342781 1.77318039 54.51879883 1.77294922 C55.50697098 1.768508 56.49514313 1.76406677 57.51325989 1.75949097 C60 2 60 2 63 4 C58.32798795 5.20568053 53.78503708 5.09382426 49 5 C49 4.67 49 4.34 49 4 C33.49 4 17.98 4 2 4 C1.67 10.27 1.34 16.54 1 23 C0.34 22.67 -0.32 22.34 -1 22 C-0.67 14.74 -0.34 7.48 0 0 Z " fill="#8DC369" transform="translate(265,33)"/>
<path d="M0 0 C0 0.66 0 1.32 0 2 C-12.38077633 2.11522956 -24.6497088 1.89587605 -37 1 C-36.67 0.34 -36.34 -0.32 -36 -1 C-33.61288624 -1.32565516 -31.33737815 -1.51853126 -28.9375 -1.625 C-28.22883789 -1.66149658 -27.52017578 -1.69799316 -26.79003906 -1.7355957 C-4.36774084 -2.7905011 -4.36774084 -2.7905011 0 0 Z " fill="#F2FCE9" transform="translate(328,33)"/>
<path d="M0 0 C0.99 0.33 1.98 0.66 3 1 C3.36309129 7.41461282 3.36309129 7.41461282 1.93986511 9.70918274 C-0.96972473 11.64527034 -3.84973713 11.39330269 -7.2253418 11.34057617 C-7.95729767 11.34101425 -8.68925354 11.34145233 -9.44338989 11.34190369 C-11.86227105 11.33981398 -14.28045871 11.31647515 -16.69921875 11.29296875 C-18.37644573 11.28737342 -20.05367762 11.28310303 -21.73091125 11.28010559 C-26.14512675 11.26865178 -30.55904605 11.23918011 -34.97314453 11.20599365 C-39.4774983 11.17530425 -43.98189994 11.16160268 -48.48632812 11.14648438 C-57.32434887 11.11431083 -66.16214981 11.06310808 -75 11 C-75 10.67 -75 10.34 -75 10 C-50.25 9.67 -25.5 9.34 0 9 C0 6.03 0 3.06 0 0 Z " fill="#7DB650" transform="translate(326,243)"/>
<path d="M0 0 C0.74507813 0.00451172 1.49015625 0.00902344 2.2578125 0.01367188 C4.0885764 0.02540754 5.91929873 0.0433415 7.75 0.0625 C6.43 1.3825 5.11 2.7025 3.75 4.0625 C5.07 4.3925 6.39 4.7225 7.75 5.0625 C-3.8 4.7325 -15.35 4.4025 -27.25 4.0625 C-27.58 3.4025 -27.91 2.7425 -28.25 2.0625 C-27.14140625 2.00191406 -26.0328125 1.94132812 -24.890625 1.87890625 C-23.4270718 1.79447049 -21.96353075 1.70982401 -20.5 1.625 C-19.40558594 1.56602539 -19.40558594 1.56602539 -18.2890625 1.50585938 C-14.23286152 1.28773704 -14.23286152 1.28773704 -10.25 0.54882812 C-6.8843801 -0.26956968 -3.4434441 -0.03954485 0 0 Z " fill="#F4FDEF" transform="translate(320.25,53.9375)"/>
<path d="M0 0 C14.37255792 -0.12713885 28.65299359 0.12000837 43 1 C41 3 41 3 37.00927734 3.22705078 C35.28479831 3.22673337 33.56029967 3.21539124 31.8359375 3.1953125 C30.47512558 3.19106766 30.47512558 3.19106766 29.08682251 3.18673706 C26.18274877 3.17552153 23.27898088 3.15041463 20.375 3.125 C18.40885861 3.11497197 16.4427124 3.10584581 14.4765625 3.09765625 C9.65092341 3.07557772 4.8255136 3.04103865 0 3 C0 2.01 0 1.02 0 0 Z " fill="#8EBE70" transform="translate(285,28)"/>
<path d="M0 0 C0 0.66 0 1.32 0 2 C0.66 2 1.32 2 2 2 C3.34516765 8.35897436 3.34516765 8.35897436 1.6875 11.4375 C0 13 0 13 -2 13 C-2.66 14.32 -3.32 15.64 -4 17 C-4.99 16.34 -5.98 15.68 -7 15 C-6.195625 14.319375 -5.39125 13.63875 -4.5625 12.9375 C-1.31716298 9.75506676 -1.31716298 9.75506676 -1 3 C-12.55 3 -24.1 3 -36 3 C-36 2.67 -36 2.34 -36 2 C-35.16750732 1.97494385 -34.33501465 1.9498877 -33.47729492 1.92407227 C-30.38537167 1.82887306 -27.29361148 1.72964328 -24.2019043 1.62768555 C-22.20696681 1.56312994 -20.21188071 1.5032217 -18.21679688 1.44335938 C-16.33637695 1.38051758 -16.33637695 1.38051758 -14.41796875 1.31640625 C-13.26063232 1.27974854 -12.1032959 1.24309082 -10.91088867 1.20532227 C-7.09519429 0.93617868 -3.89078125 -0.10515625 0 0 Z " fill="#81BA56" transform="translate(224,245)"/>
<path d="M0 0 C6.6 0 13.2 0 20 0 C20 1.98 20 3.96 20 6 C16.94371936 6.97812873 15.14722553 7.00835683 12.109375 6.00390625 C11.40039062 5.77509766 10.69140625 5.54628906 9.9609375 5.31054688 C9.23132813 5.06369141 8.50171875 4.81683594 7.75 4.5625 C7.00492188 4.31951172 6.25984375 4.07652344 5.4921875 3.82617188 C3.65841765 3.22667019 1.82877996 2.61455513 0 2 C0 1.34 0 0.68 0 0 Z " fill="#FBFBFB" transform="translate(200,250)"/>
<path d="M0 0 C0 0.66 0 1.32 0 2 C-0.66 2.66 -1.32 3.32 -2 4 C-2.37125 4.53625 -2.7425 5.0725 -3.125 5.625 C-6.17925153 7.86478446 -9.27643919 7.11820828 -13 7 C-13.99 7.495 -13.99 7.495 -15 8 C-17.00800456 7.71887936 -19.01014051 7.38932033 -21 7 C-19.36373859 3.72747719 -16.21431973 2.46105442 -13 1 C-8.4208934 -0.45453974 -4.67435526 -1.46667129 0 0 Z " fill="#F5F9F4" transform="translate(141,188)"/>
<path d="M0 0 C0.70125 0.515625 1.4025 1.03125 2.125 1.5625 C5.60887535 3.30443767 7.2983569 2.94693195 11 2 C11.33 2.99 11.66 3.98 12 5 C12.74765625 4.84402344 13.4953125 4.68804687 14.265625 4.52734375 C15.25046875 4.33269531 16.2353125 4.13804687 17.25 3.9375 C18.71179688 3.64166016 18.71179688 3.64166016 20.203125 3.33984375 C22.868119 3.01602465 24.48871723 3.14496801 27 4 C17.82899626 6.80642737 9.70186168 8.65040413 0 8 C0 5.36 0 2.72 0 0 Z " fill="#76BD45" transform="translate(102,185)"/>
<path d="M0 0 C2.42857143 6.28571429 2.42857143 6.28571429 1 10 C0.34 7.69 -0.32 5.38 -1 3 C-15.52 3 -30.04 3 -45 3 C-45 2.34 -45 1.68 -45 1 C-39.39495834 0.85677909 -33.78989648 0.7143864 -28.18481445 0.57275391 C-26.27888422 0.5244779 -24.37295966 0.47597743 -22.46704102 0.42724609 C-19.72413579 0.3571536 -16.98121103 0.28787406 -14.23828125 0.21875 C-13.38913651 0.19687622 -12.53999176 0.17500244 -11.66511536 0.15246582 C-7.77560856 0.05518227 -3.89112805 -0.02767024 0 0 Z " fill="#8CBD5F" transform="translate(250,48)"/>
<path d="M0 0 C6.23982463 -0.02505025 12.47961885 -0.04302259 18.71948242 -0.05493164 C20.83439647 -0.05990564 22.94930719 -0.06668722 25.06420898 -0.07543945 C37.75097407 -0.12655939 50.3460524 0.04614162 63 1 C63 1.33 63 1.66 63 2 C53.32153574 2.64217298 43.70618661 3.16831537 34 3 C34 2.67 34 2.34 34 2 C22.78 1.67 11.56 1.34 0 1 C0 0.67 0 0.34 0 0 Z " fill="#7BBA4D" transform="translate(148,39)"/>
<path d="M0 0 C5.28 0 10.56 0 16 0 C16 0.33 16 0.66 16 1 C13.69 1 11.38 1 9 1 C9 1.66 9 2.32 9 3 C16.59 3 24.18 3 32 3 C32 3.33 32 3.66 32 4 C15.33129119 4.60142352 -1.31750448 5.19126428 -18 5 C-18 4.67 -18 4.34 -18 4 C-16.35451172 3.90912109 -16.35451172 3.90912109 -14.67578125 3.81640625 C-13.22134346 3.73195502 -11.76691695 3.64730934 -10.3125 3.5625 C-9.59126953 3.52318359 -8.87003906 3.48386719 -8.12695312 3.44335938 C-4.33292718 3.21814322 -0.71348508 2.87160695 3 2 C2.01 1.34 1.02 0.68 0 0 Z " fill="#9ED082" transform="translate(276,58)"/>
<path d="M0 0 C1.32 0 2.64 0 4 0 C3.67 3.3 3.34 6.6 3 10 C3.99 9.67 4.98 9.34 6 9 C8.33299825 8.96045766 10.66708189 8.95598268 13 9 C13.25 15.625 13.25 15.625 11 19 C11.33 16.03 11.66 13.06 12 10 C10.700625 10.474375 9.40125 10.94875 8.0625 11.4375 C3.35382444 13.0220067 -1.0566307 13.6076691 -6 14 C-5.2884375 13.2265625 -5.2884375 13.2265625 -4.5625 12.4375 C-2.57190593 9.33217325 -2.34939182 6.63367496 -2 3 C-1.01 2.67 -0.02 2.34 1 2 C0.67 1.34 0.34 0.68 0 0 Z " fill="#E8F3DF" transform="translate(147,123)"/>
<path d="M0 0 C0.92232422 0.00451172 1.84464844 0.00902344 2.79492188 0.01367188 C5.05085048 0.02536062 7.30663967 0.04174545 9.5625 0.0625 C9.5625 0.7225 9.5625 1.3825 9.5625 2.0625 C6.20514863 3.18161712 3.68044614 3.17615586 0.14453125 3.16015625 C-1.10908203 3.15693359 -2.36269531 3.15371094 -3.65429688 3.15039062 C-4.96462891 3.14201172 -6.27496094 3.13363281 -7.625 3.125 C-8.96028481 3.11998317 -10.29557141 3.11542059 -11.63085938 3.11132812 C-14.89978473 3.09952695 -18.16861991 3.08306297 -21.4375 3.0625 C-14.70406238 -0.52035497 -7.43889817 -0.06962252 0 0 Z " fill="#94C274" transform="translate(318.4375,42.9375)"/>
<path d="M0 0 C3.64576392 -0.05878077 7.29140352 -0.0938558 10.9375 -0.125 C12.46987305 -0.15013672 12.46987305 -0.15013672 14.03320312 -0.17578125 C20.35688352 -0.21618815 25.88316527 0.37989987 32 2 C31.67 2.99 31.34 3.98 31 5 C24.32956693 4.17421321 17.66458095 3.30915045 11 2.4375 C9.40865234 2.22963867 9.40865234 2.22963867 7.78515625 2.01757812 C5.19007848 1.67858148 2.59502712 1.33938408 0 1 C0 0.67 0 0.34 0 0 Z " fill="#C5ECB0" transform="translate(165,247)"/>
<path d="M0 0 C0.66 0.33 1.32 0.66 2 1 C2 2.32 2 3.64 2 5 C1.34 5.66 0.68 6.32 0 7 C0.66 7.33 1.32 7.66 2 8 C2 11.11257569 1.82638376 13.10765685 1 16 C-2.16115776 14.63016497 -2.9927092 14.0109362 -5 11 C-4.78762164 6.11529769 -3.25743085 3.5726661 0 0 Z " fill="#F1F1F1" transform="translate(363,159)"/>
<path d="M0 0 C0.33 0 0.66 0 1 0 C1.59508394 7.69641894 1.12498012 13.1196921 -2.80859375 19.84375 C-3.95473442 21.91807672 -4.54268472 23.68714112 -5 26 C-6.32 25.67 -7.64 25.34 -9 25 C-8.60167969 24.20078125 -8.20335937 23.4015625 -7.79296875 22.578125 C-4.21705542 15.16528277 -1.65593997 8.06181303 0 0 Z " fill="#E3F6D8" transform="translate(157,147)"/>
<path d="M0 0 C0.33 0.66 0.66 1.32 1 2 C6.61 2.33 12.22 2.66 18 3 C18 3.33 18 3.66 18 4 C16.70964844 4.03738281 15.41929687 4.07476563 14.08984375 4.11328125 C12.37236851 4.17897702 10.65492185 4.2454231 8.9375 4.3125 C7.66616211 4.34633789 7.66616211 4.34633789 6.36914062 4.38085938 C0.90061684 4.61311328 -3.17965198 5.3387662 -8 8 C-9.97806411 11.03411107 -9.97806411 11.03411107 -11 14 C-12.15022283 10.5493315 -11.70265569 8.92457181 -10.23046875 5.6484375 C-8.27001001 3.02204515 -5.80926794 2.39535592 -2.7421875 1.5078125 C-0.98757744 1.14790531 -0.98757744 1.14790531 0 0 Z " fill="#F3FCE4" transform="translate(261,23)"/>
<path d="M0 0 C7.59 0 15.18 0 23 0 C23 0.33 23 0.66 23 1 C2.46808511 4.57446809 2.46808511 4.57446809 -7 4 C-7 3.67 -7 3.34 -7 3 C-3.535 2.505 -3.535 2.505 0 2 C0 1.34 0 0.68 0 0 Z " fill="#86BC5C" transform="translate(285,43)"/>
<path d="M0 0 C9.57 0 19.14 0 29 0 C29 0.33 29 0.66 29 1 C21.41 1.33 13.82 1.66 6 2 C6 2.66 6 3.32 6 4 C7.65 4.33 9.3 4.66 11 5 C8.83032311 5.95465783 7.43671207 6.14401212 5.17578125 5.3984375 C3.4315257 4.64129615 1.71372869 3.82390802 0 3 C0 2.01 0 1.02 0 0 Z " fill="#D9F1C4" transform="translate(194,248)"/>
<path d="M0 0 C0 0.99 0 1.98 0 3 C-22.80127986 3.20638953 -22.80127986 3.20638953 -32 2 C-32 1.67 -32 1.34 -32 1 C-27.76417434 0.8571596 -23.52833436 0.71475403 -19.29248047 0.57275391 C-17.85107018 0.52437136 -16.4096639 0.47586935 -14.96826172 0.42724609 C-12.89812237 0.3574341 -10.82796906 0.28804973 -8.7578125 0.21875 C-7.5114502 0.17685547 -6.26508789 0.13496094 -4.98095703 0.09179688 C-3.32114289 0.04068384 -1.66060095 0 0 0 Z " fill="#EDFEEF" transform="translate(249,37)"/>
<path d="M0 0 C4.50234373 -0.04944705 9.0045293 -0.08574161 13.50708008 -0.10986328 C15.03868361 -0.11991935 16.57026795 -0.133566 18.10180664 -0.15087891 C20.30359636 -0.17514498 22.50513219 -0.18648688 24.70703125 -0.1953125 C25.39150833 -0.20563507 26.07598541 -0.21595764 26.78120422 -0.22659302 C30.43061661 -0.22745382 31.87148502 -0.08567666 35 2 C30.32798795 3.20568053 25.78503708 3.09382426 21 3 C21 2.67 21 2.34 21 2 C14.07 1.67 7.14 1.34 0 1 C0 0.67 0 0.34 0 0 Z " fill="#9DC680" transform="translate(293,35)"/>
<path d="M0 0 C1.04285156 -0.00515625 2.08570313 -0.0103125 3.16015625 -0.015625 C5.9375 0.25 5.9375 0.25 8.9375 2.25 C2.61322401 3.60991738 -3.62275419 4.62679879 -10.0625 5.25 C-10.0625 4.26 -10.0625 3.27 -10.0625 2.25 C-6.65145449 0.17871453 -3.95714724 -0.01961411 0 0 Z " fill="#7ABA4F" transform="translate(279.0625,42.75)"/>
<path d="M0 0 C0 0.66 0 1.32 0 2 C-2.30078125 3.65625 -2.30078125 3.65625 -5.3125 5.5 C-6.29863281 6.1084375 -7.28476563 6.716875 -8.30078125 7.34375 C-9.19152344 7.8903125 -10.08226563 8.436875 -11 9 C-11.99 9.66 -12.98 10.32 -14 11 C-14 10.34 -14 9.68 -14 9 C-15.32 9.33 -16.64 9.66 -18 10 C-14.96058132 6.62286814 -11.9491359 4.73201206 -7.875 2.75 C-6.82054688 2.22921875 -5.76609375 1.7084375 -4.6796875 1.171875 C-2 0 -2 0 0 0 Z " fill="#DCF4C9" transform="translate(132,152)"/>
<path d="M0 0 C-0.33 4.62 -0.66 9.24 -1 14 C-1.33 14 -1.66 14 -2 14 C-2 10.37 -2 6.74 -2 3 C-3.299375 3.33 -4.59875 3.66 -5.9375 4 C-10.72610234 5.07933577 -15.10351254 5.15544405 -20 5 C-20 4.67 -20 4.34 -20 4 C-19.09636719 3.79503906 -18.19273437 3.59007812 -17.26171875 3.37890625 C-16.08222656 3.10949219 -14.90273437 2.84007812 -13.6875 2.5625 C-12.51574219 2.29566406 -11.34398437 2.02882812 -10.13671875 1.75390625 C-2.83937824 0 -2.83937824 0 0 0 Z " fill="#95C473" transform="translate(159,133)"/>
<path d="M0 0 C0.33 0 0.66 0 1 0 C1 1.98 1 3.96 1 6 C0.360625 6.268125 -0.27875 6.53625 -0.9375 6.8125 C-3.33131686 7.88667752 -3.33131686 7.88667752 -4 11 C-4.34227417 12.33106622 -4.67751743 13.66400079 -5 15 C-5.66 15 -6.32 15 -7 15 C-7 18.63 -7 22.26 -7 26 C-7.33 26 -7.66 26 -8 26 C-8.81437015 15.46747945 -6.66895676 8.2194425 0 0 Z " fill="#8FC466" transform="translate(99,153)"/>
<path d="M0 0 C2.31 0 4.62 0 7 0 C7 0.66 7 1.32 7 2 C11.95 2 16.9 2 22 2 C22 2.66 22 3.32 22 4 C6.25512528 4.3690205 6.25512528 4.3690205 -1 2 C-0.67 1.34 -0.34 0.68 0 0 Z " fill="#F2FEEA" transform="translate(137,236)"/>
<path d="M0 0 C1.43739513 -0.02712066 2.87493863 -0.04645067 4.3125 -0.0625 C5.51326172 -0.07990234 5.51326172 -0.07990234 6.73828125 -0.09765625 C9 0 9 0 12 1 C11.67 1.99 11.34 2.98 11 4 C9.37536158 4.05395478 7.75021459 4.09277195 6.125 4.125 C5.22007812 4.14820313 4.31515625 4.17140625 3.3828125 4.1953125 C1 4 1 4 -1 2 C-0.67 1.34 -0.34 0.68 0 0 Z " fill="#74BF44" transform="translate(258,29)"/>
<path d="M0 0 C0.5775 0.2475 1.155 0.495 1.75 0.75 C0.76 1.08 -0.23 1.41 -1.25 1.75 C-1.37375 2.3275 -1.4975 2.905 -1.625 3.5 C-2.57690588 6.92686118 -4.5698981 8.49627795 -7.25 10.75 C-10.0625 11.5625 -10.0625 11.5625 -12.25 11.75 C-3.41766467 -0.37974052 -3.41766467 -0.37974052 0 0 Z " fill="#DFF5D3" transform="translate(234.25,255.25)"/>
<path d="M0 0 C0.99 0 1.98 0 3 0 C2.125 4.75 2.125 4.75 1 7 C0.77377919 8.70363822 0.59111527 10.41328701 0.4375 12.125 C0.35371094 13.03507813 0.26992187 13.94515625 0.18359375 14.8828125 C0.12300781 15.58148438 0.06242187 16.28015625 0 17 C-0.33 17 -0.66 17 -1 17 C-1 14.03 -1 11.06 -1 8 C-2.32 8 -3.64 8 -5 8 C-4.60298154 5.12161616 -4.23861838 4.19523322 -1.9375 2.3125 C-0.9784375 1.6628125 -0.9784375 1.6628125 0 1 C0 0.67 0 0.34 0 0 Z " fill="#ECF9DF" transform="translate(101,176)"/>
<path d="M0 0 C0.74362793 0.01047363 1.48725586 0.02094727 2.25341797 0.03173828 C3.46191406 0.04140625 3.46191406 0.04140625 4.69482422 0.05126953 C5.95746094 0.07640625 5.95746094 0.07640625 7.24560547 0.10205078 C8.51984375 0.11558594 8.51984375 0.11558594 9.81982422 0.12939453 C11.9202043 0.15299431 14.02043991 0.18886595 16.12060547 0.22705078 C16.12060547 1.21705078 16.12060547 2.20705078 16.12060547 3.22705078 C18.10060547 3.22705078 20.08060547 3.22705078 22.12060547 3.22705078 C22.12060547 3.55705078 22.12060547 3.88705078 22.12060547 4.22705078 C18.82060547 4.22705078 15.52060547 4.22705078 12.12060547 4.22705078 C12.12060547 3.56705078 12.12060547 2.90705078 12.12060547 2.22705078 C6.84060547 2.22705078 1.56060547 2.22705078 -3.87939453 2.22705078 C-1.87939453 0.22705078 -1.87939453 0.22705078 0 0 Z " fill="#89BC61" transform="translate(257.87939453125,27.77294921875)"/>
<path d="M0 0 C0.66 0.33 1.32 0.66 2 1 C1.25 2.9375 1.25 2.9375 0 5 C-1.32594105 5.36162029 -2.65938457 5.69728039 -4 6 C-4.33 6.99 -4.66 7.98 -5 9 C-6.95597184 10.39712274 -8.95436401 11.73779907 -11 13 C-11.66 12.67 -12.32 12.34 -13 12 C-8.87675353 7.74790208 -4.48717034 3.86364295 0 0 Z " fill="#83BA56" transform="translate(125,157)"/>
<path d="M0 0 C0 0.66 0 1.32 0 2 C-2.90600261 3.25664978 -4.79604584 4 -8 4 C-8 4.66 -8 5.32 -8 6 C-7.01 6.66 -6.02 7.32 -5 8 C-6.65 8 -8.3 8 -10 8 C-10 7.34 -10 6.68 -10 6 C-11.32 5.67 -12.64 5.34 -14 5 C-12.421924 4.15675328 -10.8372958 3.32576082 -9.25 2.5 C-8.36828125 2.0359375 -7.4865625 1.571875 -6.578125 1.09375 C-4 0 -4 0 0 0 Z " fill="#84C158" transform="translate(122,141)"/>
<path d="M0 0 C1.65 0 3.3 0 5 0 C4.67 1.65 4.34 3.3 4 5 C0.7 5.33 -2.6 5.66 -6 6 C-4.73577236 3.47154472 -3.47154472 3.23577236 -1 2 C-0.67 1.34 -0.34 0.68 0 0 Z " fill="#F3FBEA" transform="translate(260,34)"/>
<path d="M0 0 C1.84288788 3.68577577 2.24701045 4.72122653 2.1953125 8.546875 C2.18886719 9.39121094 2.18242187 10.23554688 2.17578125 11.10546875 C2.15902344 11.97816406 2.14226562 12.85085937 2.125 13.75 C2.11597656 14.63816406 2.10695312 15.52632812 2.09765625 16.44140625 C2.07414577 18.62788058 2.04128499 20.81380094 2 23 C1.67 23 1.34 23 1 23 C0.67 17.72 0.34 12.44 0 7 C-0.99 7.66 -1.98 8.32 -3 9 C-2.01 6.03 -1.02 3.06 0 0 Z " fill="#535353" transform="translate(166,155)"/>
<path d="M0 0 C0.99 0 1.98 0 3 0 C3 0.66 3 1.32 3 2 C2.278125 2.66 1.55625 3.32 0.8125 4 C-2.98319744 7.58964529 -4.86108371 12.31258771 -7 17 C-8.21386936 13.35839192 -7.6674695 12.66834531 -6.0625 9.3125 C-5.68222656 8.50425781 -5.30195312 7.69601563 -4.91015625 6.86328125 C-4.60980469 6.24839844 -4.30945313 5.63351563 -4 5 C-3.34 5 -2.68 5 -2 5 C-1.855625 4.360625 -1.71125 3.72125 -1.5625 3.0625 C-1 1 -1 1 0 0 Z " fill="#E6F8D5" transform="translate(99,150)"/>
<path d="M0 0 C0 0.33 0 0.66 0 1 C-1.65 1 -3.3 1 -5 1 C-5.268125 1.639375 -5.53625 2.27875 -5.8125 2.9375 C-7 5 -7 5 -10 6 C-7.03 6.495 -7.03 6.495 -4 7 C-4 7.33 -4 7.66 -4 8 C-6.97 8.66 -9.94 9.32 -13 10 C-12.78233948 6.19094094 -12.00605451 5.00633611 -9.3125 2.1875 C-5.74491679 -0.16845118 -4.16760893 -0.49614392 0 0 Z " fill="#DDF6C7" transform="translate(265,33)"/>
<path d="M0 0 C5.28 0 10.56 0 16 0 C16 0.33 16 0.66 16 1 C14.01432292 1.48828125 12.02864583 1.9765625 10.04296875 2.46484375 C8.34316798 2.91010705 6.66698046 3.44433985 5 4 C2.3125 3.0625 2.3125 3.0625 0 2 C0 1.34 0 0.68 0 0 Z " fill="#F6F9EE" transform="translate(200,250)"/>
<path d="M0 0 C5.94 0 11.88 0 18 0 C18 1.98 18 3.96 18 6 C17.01 6.33 16.02 6.66 15 7 C15 5.02 15 3.04 15 1 C10.05 1 5.1 1 0 1 C0 0.67 0 0.34 0 0 Z " fill="#EAFDE0" transform="translate(205,249)"/>
<path d="M0 0 C0.99 0.33 1.98 0.66 3 1 C2.57847656 1.61488281 2.15695313 2.22976562 1.72265625 2.86328125 C1.17480469 3.67152344 0.62695312 4.47976562 0.0625 5.3125 C-0.48277344 6.11300781 -1.02804688 6.91351563 -1.58984375 7.73828125 C-3.13837326 10.0258143 -3.13837326 10.0258143 -4 13 C-4.66 13 -5.32 13 -6 13 C-6.66 11.35 -7.32 9.7 -8 8 C-6.35 7.67 -4.7 7.34 -3 7 C-2.814375 6.1028125 -2.814375 6.1028125 -2.625 5.1875 C-2 3 -2 3 0 0 Z " fill="#88B95B" transform="translate(100,172)"/>
<path d="M0 0 C2.31 0 4.62 0 7 0 C7 0.66 7 1.32 7 2 C6.01 2.495 6.01 2.495 5 3 C5 3.66 5 4.32 5 5 C6.32 5 7.64 5 9 5 C8.67 6.32 8.34 7.64 8 9 C6.66079162 7.88200014 5.32877444 6.75538103 4 5.625 C2.88625 4.68527344 2.88625 4.68527344 1.75 3.7265625 C1.1725 3.15679687 0.595 2.58703125 0 2 C0 1.34 0 0.68 0 0 Z " fill="#7DBC52" transform="translate(112,241)"/>
<path d="M0 0 C4.47200388 1.21963742 6.90144153 2.56945312 10 6 C10.66 6.33 11.32 6.66 12 7 C10.35 7.66 8.7 8.32 7 9 C6.6596875 7.824375 6.6596875 7.824375 6.3125 6.625 C5.21875 3.78125 5.21875 3.78125 2.375 2.6875 C1.59125 2.460625 0.8075 2.23375 0 2 C0 1.34 0 0.68 0 0 Z " fill="#8ABF61" transform="translate(205,255)"/>
<path d="M0 0 C0.99 0.33 1.98 0.66 3 1 C3.3633218 7.41868512 3.3633218 7.41868512 1.75 10 C0 11 0 11 -2.1875 10.6875 C-2.785625 10.460625 -3.38375 10.23375 -4 10 C-2.68 9.67 -1.36 9.34 0 9 C0 6.03 0 3.06 0 0 Z " fill="#8BBC64" transform="translate(326,243)"/>
<path d="M0 0 C0.54527344 0.2784375 1.09054688 0.556875 1.65234375 0.84375 C5.20237639 2.59218538 8.82641842 4.17240874 12.44140625 5.78125 C15 7 15 7 18 9 C11.02013687 8.68978386 5.92708478 5.5048042 0 2 C0 1.34 0 0.68 0 0 Z " fill="#E3FAD5" transform="translate(117,248)"/>
<path d="M0 0 C1.32 0 2.64 0 4 0 C5.23887548 2.47775095 5.16741669 4.23653707 5.1875 7 C5.20167969 7.886875 5.21585937 8.77375 5.23046875 9.6875 C5 12 5 12 3 14 C0.875 13.625 0.875 13.625 -1 13 C-0.360625 12.649375 0.27875 12.29875 0.9375 11.9375 C3.82163832 9.22815794 3.7100822 6.84141089 4 3 C2.68 2.34 1.36 1.68 0 1 C0 0.67 0 0.34 0 0 Z " fill="#E4F7D4" transform="translate(325,241)"/>
<path d="M0 0 C0.33 0 0.66 0 1 0 C1 3.63 1 7.26 1 11 C-0.98 11.99 -2.96 12.98 -5 14 C-4.731875 13.360625 -4.46375 12.72125 -4.1875 12.0625 C-2.64635858 8.08797739 -1.32390688 4.05115505 0 0 Z " fill="#E8E7E7" transform="translate(416,234)"/>
<path d="M0 0 C0.99 0.33 1.98 0.66 3 1 C2.34 1 1.68 1 1 1 C0.79375 1.886875 0.5875 2.77375 0.375 3.6875 C-1.38304358 7.92278682 -3.35373333 9.30493333 -7 12 C-5.44298069 7.32894208 -2.91552627 3.91294315 0 0 Z " fill="#E5E5E5" transform="translate(329,203)"/>
<path d="M0 0 C0.33 0.66 0.66 1.32 1 2 C0.2884375 3.3921875 0.2884375 3.3921875 -0.4375 4.8125 C-1.98078978 7.96081114 -2.30199784 9.57735783 -2 13 C-3.32 13 -4.64 13 -6 13 C-3.10933941 3.40546697 -3.10933941 3.40546697 0 0 Z " fill="#85BE62" transform="translate(109,172)"/>
<path d="M0 0 C0.94875 0.04125 1.8975 0.0825 2.875 0.125 C1.0625 3.125 1.0625 3.125 -1.125 6.125 C-2.115 6.125 -3.105 6.125 -4.125 6.125 C-4.75 4.25 -4.75 4.25 -5.125 2.125 C-3.125 0.125 -3.125 0.125 0 0 Z " fill="#EDEEEB" transform="translate(151.125,178.875)"/>
<path d="M0 0 C1 2 1 2 0.3125 4.4375 C-1.13120323 7.25615868 -2.43052341 8.23348484 -5 10 C-5.66 10.99 -6.32 11.98 -7 13 C-6.70876501 7.02968261 -3.97185616 4.105466 0 0 Z " fill="#E6E6E6" transform="translate(40,53)"/>
<path d="M0 0 C2.42857143 6.28571429 2.42857143 6.28571429 1 10 C0.34 7.69 -0.32 5.38 -1 3 C-4.3 2.67 -7.6 2.34 -11 2 C-11 1.67 -11 1.34 -11 1 C-7.27569643 0.30710631 -3.78916254 -0.11144596 0 0 Z " fill="#84BB5E" transform="translate(250,48)"/>
<path d="M0 0 C0.66 0.66 1.32 1.32 2 2 C0.71064081 3.14842923 -0.58156579 4.29366227 -1.875 5.4375 C-2.59429687 6.07558594 -3.31359375 6.71367187 -4.0546875 7.37109375 C-6 9 -6 9 -8 10 C-7.52723148 5.74508335 -5.07452523 3.77457155 -2 1 C-1.34 0.67 -0.68 0.34 0 0 Z " fill="#85BB5A" transform="translate(111,161)"/>
<path d="M0 0 C1.98 0 3.96 0 6 0 C6.50833591 1.24663331 7.00631145 2.49749387 7.5 3.75 C7.7784375 4.44609375 8.056875 5.1421875 8.34375 5.859375 C9 8 9 8 9 12 C8.34 12 7.68 12 7 12 C6.67 9.03 6.34 6.06 6 3 C4.02 2.34 2.04 1.68 0 1 C0 0.67 0 0.34 0 0 Z " fill="#8BBE5E" transform="translate(255,41)"/>
<path d="M0 0 C2 3 2 3 1.625 6.1875 C1.41875 7.115625 1.2125 8.04375 1 9 C0.34 9 -0.32 9 -1 9 C-1.66 10.32 -2.32 11.64 -3 13 C-3.99 12.34 -4.98 11.68 -6 11 C-4.7934375 9.948125 -4.7934375 9.948125 -3.5625 8.875 C-0.76566189 5.73708407 -0.28691249 4.11241237 0 0 Z " fill="#8ABF69" transform="translate(223,249)"/>
<path d="M0 0 C1.65 1.65 3.3 3.3 5 5 C4.01 5 3.02 5 2 5 C1.34 7.64 0.68 10.28 0 13 C-0.33 13 -0.66 13 -1 13 C-1.07654536 8.48382401 -1.10228696 4.40914783 0 0 Z " fill="#D4D2D3" transform="translate(82,207)"/>
<path d="M0 0 C0.66 0.33 1.32 0.66 2 1 C0.90033225 2.29549899 -0.20491801 3.58626071 -1.3125 4.875 C-1.92738281 5.59429687 -2.54226562 6.31359375 -3.17578125 7.0546875 C-5 9 -5 9 -8 11 C-8 8 -8 8 -5.6875 5.5 C-4.800625 4.675 -3.91375 3.85 -3 3 C-2.401875 2.401875 -1.80375 1.80375 -1.1875 1.1875 C-0.795625 0.795625 -0.40375 0.40375 0 0 Z " fill="#84B75C" transform="translate(146,172)"/>
<path d="M0 0 C4.62 0 9.24 0 14 0 C14 0.33 14 0.66 14 1 C12.4176994 1.33820166 10.83410625 1.67035939 9.25 2 C7.92742187 2.2784375 7.92742187 2.2784375 6.578125 2.5625 C4 3 4 3 0 3 C0 2.01 0 1.02 0 0 Z " fill="#DFF3D2" transform="translate(125,137)"/>
<path d="M0 0 C0.66 0 1.32 0 2 0 C2 0.99 2 1.98 2 3 C-4.93 3 -11.86 3 -19 3 C-19 2.67 -19 2.34 -19 2 C-17.71222656 1.93941406 -16.42445313 1.87882812 -15.09765625 1.81640625 C-13.41925841 1.73201753 -11.74087364 1.6473687 -10.0625 1.5625 C-8.78729492 1.50352539 -8.78729492 1.50352539 -7.48632812 1.44335938 C-6.67744141 1.40146484 -5.86855469 1.35957031 -5.03515625 1.31640625 C-3.91185913 1.26141968 -3.91185913 1.26141968 -2.76586914 1.20532227 C-0.97538674 1.18228937 -0.97538674 1.18228937 0 0 Z " fill="#D4F6C0" transform="translate(247,37)"/>
<path d="M0 0 C-1.55966218 0.508783 -3.12289241 1.00663469 -4.6875 1.5 C-5.99267578 1.91765625 -5.99267578 1.91765625 -7.32421875 2.34375 C-9.99391677 2.99850805 -12.26396684 3.11831495 -15 3 C-14.67 2.34 -14.34 1.68 -14 1 C-11.85546875 0.33203125 -11.85546875 0.33203125 -9.1875 -0.1875 C-8.31480469 -0.36667969 -7.44210938 -0.54585937 -6.54296875 -0.73046875 C-4.02642222 -0.99719949 -2.38332645 -0.78333107 0 0 Z " fill="#86BC5E" transform="translate(129,189)"/>
<path d="M0 0 C1.32 1.32 2.64 2.64 4 4 C3.01 4.33 2.02 4.66 1 5 C1 5.66 1 6.32 1 7 C4.63 7 8.26 7 12 7 C12 7.33 12 7.66 12 8 C8.04 8 4.08 8 0 8 C0 5.36 0 2.72 0 0 Z " fill="#87BC5D" transform="translate(102,185)"/>
<path d="M0 0 C2.89932357 2.39509338 3.50168276 4.31245243 4 8 C3.01 8.66 2.02 9.32 1 10 C-0.1577506 6.52674819 -0.06866652 3.63932552 0 0 Z " fill="#DFDFDF" transform="translate(319,162)"/>
<path d="M0 0 C0.5625 1.9375 0.5625 1.9375 1 4 C0 5 0 5 -3.0625 5.0625 C-4.031875 5.041875 -5.00125 5.02125 -6 5 C-6.33 4.01 -6.66 3.02 -7 2 C-2.25 0 -2.25 0 0 0 Z " fill="#E2E3E2" transform="translate(117,132)"/>
<path d="M0 0 C0.66 0 1.32 0 2 0 C2 3.63 2 7.26 2 11 C1.34 11 0.68 11 0 11 C-1.05404945 7.01803543 -0.84098656 4.01804691 0 0 Z " fill="#E1F6CD" transform="translate(109,40)"/>
<path d="M0 0 C-2.93720508 1.52299523 -5.9168649 2.80100302 -9 4 C-9 2.35 -9 0.7 -9 -1 C-5.79937313 -2.60031344 -3.27728194 -1.03173691 0 0 Z " fill="#EAEAEA" transform="translate(43,40)"/>
<path d="M0 0 C-0.25561323 2.3431213 -0.59270772 4.67843403 -1 7 C-1.99 7.495 -1.99 7.495 -3 8 C-3.66 7.67 -4.32 7.34 -5 7 C-4.39816251 4.97954558 -3.72693904 2.97888961 -3 1 C-1 0 -1 0 0 0 Z " fill="#F1F6E8" transform="translate(109,168)"/>
<path d="M0 0 C1.98 0 3.96 0 6 0 C6.33 0.66 6.66 1.32 7 2 C4.69 3.32 2.38 4.64 0 6 C0 4.02 0 2.04 0 0 Z " fill="#E9E8E8" transform="translate(200,121)"/>
<path d="M0 0 C0.99 0 1.98 0 3 0 C1.9024777 2.99324263 1.32317108 3.84610901 -1.625 5.25 C-2.40875 5.4975 -3.1925 5.745 -4 6 C-4 5.01 -4 4.02 -4 3 C-4.99 2.67 -5.98 2.34 -7 2 C-4.50907189 0.75453595 -3.58919267 1.2232422 -1 2 C-0.67 1.34 -0.34 0.68 0 0 Z " fill="#E0F6CC" transform="translate(218,256)"/>
<path d="M0 0 C1.98 0 3.96 0 6 0 C4.35 2.64 2.7 5.28 1 8 C0 4 0 4 0 0 Z " fill="#E6E5E5" transform="translate(189,132)"/>
<path d="M0 0 C0.33 0.66 0.66 1.32 1 2 C0.36959957 3.35085807 -0.30251417 4.68252676 -1 6 C-1.36784131 7.3242287 -1.71202981 8.65613912 -2 10 C-3.32 9.67 -4.64 9.34 -6 9 C-4.02 6.03 -2.04 3.06 0 0 Z " fill="#E2E0E1" transform="translate(388,122)"/>
<path d="M0 0 C2.375 0.3125 2.375 0.3125 5 1 C5.66 1.99 6.32 2.98 7 4 C4.69 4.33 2.38 4.66 0 5 C0 3.35 0 1.7 0 0 Z " fill="#2E2E2E" transform="translate(142,122)"/>
<path d="M0 0 C-3.14591933 2.80045623 -5.067064 3.35261589 -9.25 3.1875 C-10.14203125 3.16042969 -11.0340625 3.13335937 -11.953125 3.10546875 C-12.96632813 3.05326172 -12.96632813 3.05326172 -14 3 C-14 2.67 -14 2.34 -14 2 C-12.04396149 1.47061343 -10.08507711 0.95173199 -8.125 0.4375 C-7.03445312 0.14746094 -5.94390625 -0.14257812 -4.8203125 -0.44140625 C-2 -1 -2 -1 0 0 Z " fill="#D9F5C6" transform="translate(128,190)"/>
<path d="M0 0 C3 3.75 3 3.75 3 6 C3.66 6 4.32 6 5 6 C5 6.99 5 7.98 5 9 C3.68 9 2.36 9 1 9 C0.67 6.03 0.34 3.06 0 0 Z " fill="#E5F7D1" transform="translate(91,179)"/>
<path d="M0 0 C-3.42094242 2.28062828 -4.68187222 2.21925007 -8.6875 2.125 C-10.17830078 2.09792969 -10.17830078 2.09792969 -11.69921875 2.0703125 C-12.45847656 2.04710937 -13.21773438 2.02390625 -14 2 C-14 1.67 -14 1.34 -14 1 C-12.41913952 0.63495397 -10.83516093 0.28339494 -9.25 -0.0625 C-8.36828125 -0.25972656 -7.4865625 -0.45695313 -6.578125 -0.66015625 C-4.01320972 -0.99825872 -2.42908361 -0.81158635 0 0 Z " fill="#88BB63" transform="translate(137,139)"/>
<path d="M0 0 C1.65 0.33 3.3 0.66 5 1 C4.01 3.64 3.02 6.28 2 9 C0.4375 7.3125 0.4375 7.3125 -1 5 C-0.6875 2.25 -0.6875 2.25 0 0 Z " fill="#8CBE68" transform="translate(250,35)"/>
<path d="M0 0 C0.99 0.495 0.99 0.495 2 1 C2 1.66 2 2.32 2 3 C2.61875 3.268125 3.2375 3.53625 3.875 3.8125 C6 5 6 5 8 8 C4.21479387 7.45925627 2.40822445 5.92427254 0 3 C0 2.01 0 1.02 0 0 Z " fill="#E0F6D1" transform="translate(109,240)"/>
<path d="M0 0 C1.98 0.495 1.98 0.495 4 1 C3.67 2.98 3.34 4.96 3 7 C1.68 5.68 0.36 4.36 -1 3 C-0.67 2.01 -0.34 1.02 0 0 Z " fill="#EAE9EA" transform="translate(212,183)"/>
<path d="M0 0 C1 3 1 3 0.22265625 5.04296875 C-0.16019531 5.75066406 -0.54304687 6.45835937 -0.9375 7.1875 C-1.31777344 7.90292969 -1.69804687 8.61835938 -2.08984375 9.35546875 C-2.54037109 10.16951172 -2.54037109 10.16951172 -3 11 C-4.06192476 7.73635123 -4.07454186 7.17280159 -2.625 3.8125 C-1 1 -1 1 0 0 Z " fill="#86B958" transform="translate(152,161)"/>
<path d="M0 0 C0.66 0.33 1.32 0.66 2 1 C1.34 2.65 0.68 4.3 0 6 C-1.98 6 -3.96 6 -6 6 C-5.34 5.67 -4.68 5.34 -4 5 C-3.67 4.01 -3.34 3.02 -3 2 C-2.01 1.34 -1.02 0.68 0 0 Z " fill="#8FC063" transform="translate(106,147)"/>
<path d="M0 0 C-3.63 1.98 -7.26 3.96 -11 6 C-11 5.01 -11 4.02 -11 3 C-9.35 2.67 -7.7 2.34 -6 2 C-6 1.34 -6 0.68 -6 0 C-3 -1 -3 -1 0 0 Z " fill="#EAFAD8" transform="translate(113,144)"/>
<path d="M0 0 C-0.33 0.99 -0.66 1.98 -1 3 C-1.78375 2.814375 -2.5675 2.62875 -3.375 2.4375 C-5.97089775 1.74037734 -5.97089775 1.74037734 -8 3 C-8.66 2.34 -9.32 1.68 -10 1 C-6.78548731 -0.60725635 -3.56387464 -0.05748185 0 0 Z " fill="#E3E3E3" transform="translate(235,139)"/>
<path d="M0 0 C4.29 0.66 8.58 1.32 13 2 C13 2.33 13 2.66 13 3 C11.58845901 3.27748242 10.17020201 3.52093516 8.75 3.75 C7.96109375 3.88921875 7.1721875 4.0284375 6.359375 4.171875 C4 4 4 4 0 0 Z " fill="#89BE5E" transform="translate(252,58)"/>
<path d="M0 0 C4.11574371 0.4748935 7.36383344 1.0210244 11 3 C9.54176788 3.0270043 8.08339325 3.04639787 6.625 3.0625 C5.81289062 3.07410156 5.00078125 3.08570313 4.1640625 3.09765625 C2 3 2 3 0 2 C0 1.34 0 0.68 0 0 Z " fill="#82B956" transform="translate(194,252)"/>
<path d="M0 0 C0.66 0.33 1.32 0.66 2 1 C1.34 2.65 0.68 4.3 0 6 C-0.99 6 -1.98 6 -3 6 C-2.625 3.5625 -2.625 3.5625 -2 1 C-1.34 0.67 -0.68 0.34 0 0 Z " fill="#2A2829" transform="translate(161,192)"/>
<path d="M0 0 C0.77321882 2.98241547 1.41196203 5.97580475 2 9 C1.01 9.495 1.01 9.495 0 10 C-2 7 -2 7 -1.6875 3.875 C-1 1 -1 1 0 0 Z " fill="#DAD8D9" transform="translate(360,163)"/>
<path d="M0 0 C0.33 0 0.66 0 1 0 C1.33 1.98 1.66 3.96 2 6 C-1.75 7.125 -1.75 7.125 -4 6 C-2.69593116 3.98079663 -1.36176581 1.98075027 0 0 Z " fill="#E8E8E8" transform="translate(214,148)"/>
<path d="M0 0 C0.99 0.33 1.98 0.66 3 1 C1.02 3.97 1.02 3.97 -1 7 C-1.99 6.67 -2.98 6.34 -4 6 C-2.68 4.02 -1.36 2.04 0 0 Z " fill="#84BB5E" transform="translate(225,259)"/>
<path d="M0 0 C0.144375 0.598125 0.28875 1.19625 0.4375 1.8125 C0.8872439 3.56150404 1.42892341 5.28677023 2 7 C1.01 7 0.02 7 -1 7 C-1.66 5.68 -2.32 4.36 -3 3 C-2.01 2.01 -1.02 1.02 0 0 Z " fill="#E3E3E3" transform="translate(38,235)"/>
<path d="M0 0 C0.94875 0.04125 1.8975 0.0825 2.875 0.125 C2.875 0.785 2.875 1.445 2.875 2.125 C0.895 2.785 -1.085 3.445 -3.125 4.125 C-3.785 3.465 -4.445 2.805 -5.125 2.125 C-3.125 0.125 -3.125 0.125 0 0 Z " fill="#EBEEEE" transform="translate(131.125,193.875)"/>
<path d="M0 0 C1.67542976 0.28604898 3.34385343 0.61781233 5 1 C4.67 2.65 4.34 4.3 4 6 C2.35 4.35 0.7 2.7 -1 1 C-0.67 0.67 -0.34 0.34 0 0 Z " fill="#E9E9E9" transform="translate(216,189)"/>
<path d="M0 0 C0.99 0 1.98 0 3 0 C4.125 3.75 4.125 3.75 3 6 C2.01 6 1.02 6 0 6 C0 4.02 0 2.04 0 0 Z " fill="#6DC439" transform="translate(94,172)"/>
<path d="M0 0 C0.66 0.33 1.32 0.66 2 1 C0.1875 3.5 0.1875 3.5 -2 6 C-2.99 6 -3.98 6 -5 6 C-3.63016497 2.83884224 -3.0109362 2.0072908 0 0 Z " fill="#71C238" transform="translate(121,164)"/>
<path d="M0 0 C0.99 0.33 1.98 0.66 3 1 C2.38125 1.2475 1.7625 1.495 1.125 1.75 C-1.35068687 3.20628639 -1.95125002 4.37812506 -3 7 C-3.33 5.68 -3.66 4.36 -4 3 C-2.1875 1.4375 -2.1875 1.4375 0 0 Z " fill="#DDF2CA" transform="translate(115,163)"/>
<path d="M0 0 C0.66 0.66 1.32 1.32 2 2 C1.01 3.485 1.01 3.485 0 5 C-0.33 5.99 -0.66 6.98 -1 8 C-3.0625 8.6875 -3.0625 8.6875 -5 9 C-3.50163895 5.88801935 -1.80066242 2.9465385 0 0 Z " fill="#DFDDDE" transform="translate(381,132)"/>
<path d="M0 0 C0.33 0 0.66 0 1 0 C1.1875 2.375 1.1875 2.375 1 5 C0.01 5.66 -0.98 6.32 -2 7 C-2.99 6.67 -3.98 6.34 -5 6 C-3.35830472 3.97945196 -1.69088222 1.97956942 0 0 Z " fill="#2E2C2C" transform="translate(153,180)"/>
<path d="M0 0 C1.98 0.99 1.98 0.99 4 2 C3.01 3.98 2.02 5.96 1 8 C0.67 8 0.34 8 0 8 C0 5.36 0 2.72 0 0 Z " fill="#EDEEEE" transform="translate(158,165)"/>
<path d="M0 0 C0.66 0.33 1.32 0.66 2 1 C2 2.65 2 4.3 2 6 C-1 5 -1 5 -2.1875 2.9375 C-2.5896875 1.9784375 -2.5896875 1.9784375 -3 1 C-2.01 0.67 -1.02 0.34 0 0 Z " fill="#2C292A" transform="translate(317,153)"/>
<path d="M0 0 C0 0.66 0 1.32 0 2 C-2.3125 3.6875 -2.3125 3.6875 -5 5 C-5.99 4.67 -6.98 4.34 -8 4 C-5.57415142 1.34311822 -3.76063134 0 0 0 Z " fill="#C1ECA0" transform="translate(132,152)"/>
<path d="M0 0 C1.32 1.65 2.64 3.3 4 5 C3.01 6.485 3.01 6.485 2 8 C0.4375 6.8125 0.4375 6.8125 -1 5 C-0.6875 2.3125 -0.6875 2.3125 0 0 Z " fill="#E3E4E4" transform="translate(309,147)"/>
<path d="M0 0 C0.33 0.66 0.66 1.32 1 2 C0.01 3.32 -0.98 4.64 -2 6 C-2.99 5.34 -3.98 4.68 -5 4 C-4.67 3.01 -4.34 2.02 -4 1 C-1.9375 0.3125 -1.9375 0.3125 0 0 Z " fill="#F0F0F0" transform="translate(360,115)"/>
<path d="M0 0 C2.0625 0.4375 2.0625 0.4375 4 1 C3.071875 1.5878125 3.071875 1.5878125 2.125 2.1875 C-0.32496368 4.27717491 -1.01879998 5.97463327 -2 9 C-3.21185923 5.36442231 -2.59260392 4.36216382 -1 1 C-0.67 0.67 -0.34 0.34 0 0 Z " fill="#E7F6D9" transform="translate(252,28)"/>
<path d="M0 0 C0.66 0.99 1.32 1.98 2 3 C1.25 6.125 1.25 6.125 0 9 C-0.99 9.495 -0.99 9.495 -2 10 C-1.34 6.7 -0.68 3.4 0 0 Z " fill="#D7D6D6" transform="translate(167,178)"/>
<path d="M0 0 C0.99 0 1.98 0 3 0 C2.25 4.75 2.25 4.75 0 7 C-0.93423645 3.98968256 -1.04449911 3.13349732 0 0 Z " fill="#F6F8F0" transform="translate(101,176)"/>
<path d="M0 0 C0.33 0 0.66 0 1 0 C1.25 2.8125 1.25 2.8125 1 6 C-1 7.875 -1 7.875 -3 9 C-2.01 6.03 -1.02 3.06 0 0 Z " fill="#444546" transform="translate(166,155)"/>
<path d="M0 0 C0 0.66 0 1.32 0 2 C-2.95664519 3.4783226 -5.74229737 3.06032783 -9 3 C-4.5 0 -4.5 0 0 0 Z " fill="#93C170" transform="translate(122,141)"/>
<path d="M0 0 C4.875 4.625 4.875 4.625 6 8 C2.24623848 6.74874616 1.75926711 5.4347596 0 2 C0 1.34 0 0.68 0 0 Z " fill="#E2E2E2" transform="translate(399,54)"/>
<path d="M0 0 C1.32 0.99 2.64 1.98 4 3 C2.68 4.32 1.36 5.64 0 7 C-0.38133299 5.0085944 -0.71325582 3.00720923 -1 1 C-0.67 0.67 -0.34 0.34 0 0 Z " fill="#E5E3E4" transform="translate(24,48)"/>
<path d="M0 0 C0.33 0.66 0.66 1.32 1 2 C4.02934491 2.65772428 4.02934491 2.65772428 7 3 C7 3.33 7 3.66 7 4 C4.03 4.66 1.06 5.32 -2 6 C-1.125 1.125 -1.125 1.125 0 0 Z " fill="#CFEEB8" transform="translate(254,37)"/>
<path d="M0 0 C2.31 0 4.62 0 7 0 C6.01 0.495 6.01 0.495 5 1 C5 1.66 5 2.32 5 3 C3.35 3 1.7 3 0 3 C0 2.01 0 1.02 0 0 Z " fill="#71BE44" transform="translate(274,36)"/>
<path d="M0 0 C0 0.66 0 1.32 0 2 C-0.66 2 -1.32 2 -2 2 C-2.33 2.99 -2.66 3.98 -3 5 C-4.65 5 -6.3 5 -8 5 C-6.45487538 1.90975077 -3.48715062 0 0 0 Z " fill="#F2F8F7" transform="translate(262,35)"/>
<path d="M0 0 C0 1.32 0 2.64 0 4 C-1.32 4 -2.64 4 -4 4 C-4.33 4.66 -4.66 5.32 -5 6 C-5 4.68 -5 3.36 -5 2 C-2 0 -2 0 0 0 Z " fill="#74BF42" transform="translate(256,32)"/>
</svg>
